<svg width="40" height="40" viewBox="0 0 40 40" fill="none" xmlns="http://www.w3.org/2000/svg">
<g clip-path="url(#clip0_14124_64885)">
<path opacity="0.1" d="M34.1739 34.14C41.9832 26.3307 41.9832 13.6693 34.1739 5.86C26.3646 -1.94931 13.7032 -1.94931 5.89391 5.86C-1.9154 13.6693 -1.9154 26.3307 5.89391 34.14C13.7032 41.9493 26.3646 41.9493 34.1739 34.14Z" fill="#00FFA3"/>
<path d="M16.668 12.0835H15.0013C13.8507 12.0835 12.918 13.0162 12.918 14.1668V25.8335C12.918 26.9841 13.8507 27.9168 15.0013 27.9168H16.668C17.8186 27.9168 18.7513 26.9841 18.7513 25.8335V14.1668C18.7513 13.0162 17.8186 12.0835 16.668 12.0835Z" fill="#00FFA3"/>
<path d="M25 12.0835H23.3333C22.1827 12.0835 21.25 13.0162 21.25 14.1668V25.8335C21.25 26.9841 22.1827 27.9168 23.3333 27.9168H25C26.1506 27.9168 27.0833 26.9841 27.0833 25.8335V14.1668C27.0833 13.0162 26.1506 12.0835 25 12.0835Z" fill="#00FFA3"/>
</g>
<defs>
<clipPath id="clip0_14124_64885">
<rect width="40" height="40" fill="white"/>
</clipPath>
</defs>
</svg>
