<svg width="600" height="455" viewBox="0 0 600 455" fill="none" xmlns="http://www.w3.org/2000/svg">
<g clip-path="url(#clip0_12452_59705)">
<path d="M484.853 317.08L475.275 288.996L459.28 294.443L426.614 198.631L390.194 211.034L390.304 211.359L378.557 262.042L361.844 334.145L371.594 355.661L405.983 343.948L418.502 339.683L432.438 334.934L443.816 368.312L480.236 355.91L468.858 322.532L484.853 317.08ZM418.631 308.291L410.37 311.106L394.547 316.496L405.347 262.903L406.362 258.456L422.86 306.85L418.631 308.291Z" fill="#4991FF"/>
<path opacity="0.15" d="M468.855 322.532L480.234 355.91L457.036 345.992L419.96 212.465L406.359 258.456L400.062 284.506L378.555 262.042L390.302 211.359L390.192 211.034L426.612 198.631L459.277 294.443L475.272 288.996L484.85 317.08L468.855 322.532Z" fill="#121316"/>
<path d="M85.1143 265.825C84.1781 265.825 83.4857 265.774 83.1881 265.649C82.8382 265.503 81.7738 265.058 72.4805 248.476L74.1514 247.54C77.6226 253.733 82.8852 262.745 84.0004 263.898C85.0112 264.062 90.57 263.674 95.4957 263.178L95.6875 265.084C92.587 265.395 87.8285 265.825 85.1143 265.825Z" fill="#434347"/>
<path d="M118.802 273.865V274.42C118.802 274.42 118.294 284.946 110.412 284.491C110.393 284.491 110.373 284.487 110.354 284.487C105.479 284.171 99.4449 281.897 95.3982 280.207C92.8553 279.145 91.093 278.312 90.8967 278.345C90.3842 278.427 96.8684 305.386 96.7822 306.922C96.7727 307.128 96.7248 307.348 96.6529 307.573C96.1932 309.033 94.589 310.785 93.6264 310.929C93.5257 310.943 93.3198 310.756 93.0277 310.393C90.0969 306.75 78.4932 285.592 78.1772 278.685C77.8372 271.093 81.6779 266.522 86.8834 265.651C90.7243 265.009 101.954 266.555 107.581 267.412C109.578 267.719 110.867 267.934 110.867 267.934L118.802 273.865Z" fill="#2F2F33"/>
<path opacity="0.25" d="M96.7861 306.922C96.7767 307.128 96.7288 307.348 96.6569 307.573C96.1972 309.033 94.5929 310.785 93.6303 310.929C93.5297 310.943 93.3238 310.756 93.0317 310.393C97.1598 304.567 86.3702 276.206 88.7169 276.124C89.8757 276.086 92.4378 278.053 95.4022 280.207C92.8593 279.145 91.097 278.312 90.9006 278.345C90.3881 278.427 96.8724 305.386 96.7861 306.922Z" fill="black"/>
<path opacity="0.25" d="M118.806 273.865V274.42C118.806 274.42 118.299 284.946 110.416 284.492C111.968 283.252 112.255 281.069 112.14 278.427C112.006 275.368 109.176 270.131 107.586 267.412C109.583 267.719 110.871 267.934 110.871 267.934L118.806 273.865Z" fill="black"/>
<path d="M102.025 239.304C101.762 239.716 101.59 240.061 101.59 240.324C101.59 240.324 101.58 240.31 101.561 240.276C101.47 240.113 101.139 239.544 100.713 238.883C99.9948 237.773 99.0034 236.394 98.4049 236.227C97.4423 235.963 94.8802 239.199 91.4178 239.458C91.1879 239.477 90.958 239.482 90.7235 239.472C86.9114 239.3 82.8695 233.896 86.1165 227.529C87.2515 229.86 89.5837 229.918 89.5837 229.918C89.5837 229.918 88.1613 229.63 88.1087 227.869C92.2606 228.606 94.4204 225.48 98.0074 226.62C101.59 227.754 101.364 229.918 101.364 229.918C101.364 229.918 104.094 228.836 104.947 232.249C105.631 234.977 103.079 237.667 102.025 239.304Z" fill="#E33D15"/>
<path d="M101.565 240.276C101.321 241.138 100.856 242.076 100.229 242.837C99.4673 243.766 98.4616 244.445 97.3267 244.417C94.9034 244.359 92.4946 241.109 91.4219 239.458C94.8843 239.199 97.4463 235.963 98.409 236.227C99.0075 236.394 99.9989 237.773 100.717 238.883C101.143 239.544 101.474 240.114 101.565 240.276Z" fill="url(#paint0_linear_12452_59705)"/>
<path d="M105.063 240.606C105.063 240.606 103.244 244.761 102.559 243.852C102.19 243.359 101.127 243.033 100.227 242.837C100.854 242.076 101.318 241.138 101.563 240.276C101.582 240.31 101.591 240.324 101.591 240.324C101.591 240.061 101.764 239.716 102.027 239.304C103.349 240.3 105.063 240.606 105.063 240.606Z" fill="url(#paint1_linear_12452_59705)"/>
<path d="M117.864 275.698C114.962 275.272 107.113 266.742 107.113 263.071C107.113 262.554 107.055 261.979 106.96 261.352C106.356 257.532 104.148 251.932 103.229 247.973C102.161 243.368 103.698 241.645 103.698 241.645C107.271 235.504 115.356 247.677 119.968 257.437L119.973 257.442C121.525 260.73 122.549 263.784 122.645 265.828C122.976 272.74 120.766 276.124 117.864 275.698Z" fill="#FFB156"/>
<path d="M117.865 275.698C114.963 275.272 107.114 266.742 107.114 263.071C107.114 262.554 107.056 261.979 106.961 261.352L106.941 259.715L109.786 244.819C109.786 244.819 113.713 249.486 114.34 257.844C114.963 266.201 124.169 268.02 119.974 257.442C121.526 260.73 122.55 263.784 122.646 265.828C122.977 272.74 120.767 276.124 117.865 275.698Z" fill="#F5A548"/>
<path d="M111.78 257.274C111.703 257.341 111.569 257.394 111.392 257.442C110.046 257.815 106.124 257.758 104.491 257.437C104.247 257.389 104.05 257.332 103.926 257.274C102.848 256.762 103.926 255.508 103.586 253.291C103.246 251.07 102.393 244.589 105.693 242.598C109.146 240.516 111.665 248.399 111.78 252.325C111.895 256.25 112.522 256.647 111.78 257.274Z" fill="#F5A548"/>
<path d="M111.389 257.442C111.389 257.442 111.231 267.029 109.401 271.553C109.401 271.558 109.401 271.558 109.401 271.562C108.831 272.97 108.099 273.884 107.155 273.865C103.185 273.779 94.2682 264.354 93.4541 264.009C92.6447 263.669 88.5885 264.267 88.7179 263.669C88.8471 263.071 90.4274 261.75 92.1323 261.113C93.842 260.472 93.5403 260.854 104.507 265.89C104.358 264.923 104.421 260.74 104.469 258.37C104.473 258.011 104.483 257.695 104.488 257.437C106.121 257.757 110.043 257.815 111.389 257.442Z" fill="url(#paint2_linear_12452_59705)"/>
<path d="M100.052 313.403C100.33 315.112 88.8459 326.797 89.4445 323.729C90.0383 320.655 93.6252 310.929 93.6252 310.929C94.5878 310.785 96.1921 309.033 96.6518 307.573C97.5904 309.201 99.8173 311.987 100.052 313.403Z" fill="#434347"/>
<path opacity="0.1" d="M110.41 277.518C110.41 277.518 91.9754 274.059 88.334 275.732C84.6924 277.405 94.9957 306.523 94.9957 306.523" stroke="#121316" stroke-width="0.459739" stroke-miterlimit="10"/>
<path opacity="0.25" d="M109.405 271.553C109.755 269.629 110.018 264.033 109.051 261.821C108.4 260.328 105.976 259.045 104.473 258.37C104.477 258.011 104.487 257.695 104.492 257.437C106.125 257.757 110.047 257.815 111.393 257.442C111.393 257.442 111.235 267.029 109.405 271.553Z" fill="black"/>
<path d="M407.327 206.707C406.954 208.143 406.331 209.99 405.364 212.465C403.985 216.012 401.901 220.847 398.832 227.586C398.755 231.009 397.663 252.841 397.366 257.867C397.328 258.48 397.304 258.844 397.294 258.892C397.251 259.112 396.461 259.533 395.599 259.749C394.785 259.959 393.914 259.988 393.54 259.49C392.769 258.466 387.563 237.821 387.31 232.957C387.051 228.094 386.797 229.204 392.769 209.842C391.318 210.522 381.912 210.268 381.912 210.268C381.912 210.268 383.636 233.982 383.646 234.154C383.646 234.178 383.632 234.235 383.598 234.317C383.488 234.642 383.143 235.365 382.77 235.729C382.602 235.896 382.43 235.992 382.272 235.944C382.181 235.92 381.96 235.719 381.639 235.379C379.834 233.465 374.882 227.022 372.2 221.014C369.044 213.935 368.273 208.985 371.262 204.04C374.25 199.091 389.383 198.713 389.383 198.713C390.341 198.981 392.544 199.244 394.723 199.761C395.365 199.909 396.006 200.087 396.61 200.288C399.924 201.389 406.24 202.786 407.6 202.001C407.902 203.054 407.969 204.289 407.327 206.707Z" fill="#2F2F33"/>
<path d="M419.87 190.221C419.272 190.561 412.318 190.302 407.62 188.512C407.644 189.34 407.749 190.642 407.869 192.121C408.056 194.453 408.271 197.224 408.219 199.244C408.19 200.685 408.022 201.748 407.62 201.992C407.615 201.996 407.61 202.001 407.601 202.001C406.878 202.418 404.761 202.217 402.434 201.776C400.93 201.489 399.34 201.101 397.985 200.714C397.491 200.57 397.027 200.426 396.61 200.288C393.948 199.397 390.624 199.057 389.384 198.713C389.072 198.627 388.895 198.545 388.886 198.45C388.847 197.98 390.04 196.918 390.6 195.807C390.667 195.668 390.758 195.463 390.859 195.199C391.314 194.036 392.027 191.834 392.372 190.432C392.578 189.604 392.655 189.058 392.473 189.154C391.917 189.45 388.632 195.592 388.249 195.592C388.115 195.592 387.454 195.214 386.668 194.682C385.347 193.787 383.685 192.471 383.647 191.844C383.637 191.758 383.661 191.686 383.723 191.628C384.494 190.901 390.38 181.007 392.516 178.896C393.517 177.9 394.699 177.302 395.662 176.947C396.74 176.545 397.554 176.454 397.554 176.454C398.823 176.411 400.101 176.579 401.347 176.895C405.58 177.953 409.464 180.624 411.676 181.945C414.535 183.649 416.499 183.18 417.222 183.606C417.95 184.037 420.464 189.876 419.87 190.221Z" fill="#FFB156"/>
<path d="M408.219 199.244C404.283 199.292 395.533 198.943 390.859 195.199C391.314 194.036 392.028 191.834 392.373 190.432C392.373 190.432 401.611 193.232 407.87 192.121C408.057 194.453 408.272 197.224 408.219 199.244Z" fill="#F5A548"/>
<path d="M401.345 176.895C401.191 178.532 400.612 180.293 398.83 180.155C396.316 179.958 395.775 177.905 395.66 176.947C396.738 176.545 397.552 176.454 397.552 176.454C398.821 176.411 400.1 176.579 401.345 176.895Z" fill="#F5A548"/>
<path d="M400.285 173.329C400.285 173.329 399.858 171.581 399.001 170.681C398.307 171.811 395.63 172.39 393.566 172.539C392.589 172.61 391.746 172.587 391.32 172.477C389.869 166.843 394.394 164.373 396.913 164.2C399.427 164.028 401.693 165.9 401.008 168.757C403.268 170.983 400.285 173.329 400.285 173.329Z" fill="#E33D15"/>
<path d="M400.285 173.329C400.156 173.702 399.955 174.358 399.61 174.971H399.605C399.04 175.99 398.092 176.895 396.449 176.23C396.392 176.206 396.334 176.182 396.282 176.153C394.898 175.526 394.179 174.305 393.815 173.343C393.7 173.041 393.619 172.764 393.566 172.539C395.63 172.391 398.307 171.811 399.002 170.682C399.04 170.725 399.078 170.768 399.117 170.811C399.897 171.739 400.285 173.329 400.285 173.329Z" fill="url(#paint3_linear_12452_59705)"/>
<path d="M400.065 177.68C399.812 179.259 397.206 179.173 396.924 178.149C396.775 177.617 396.608 177.105 396.479 176.732C396.364 176.383 396.277 176.158 396.277 176.158V176.153C396.33 176.181 396.387 176.205 396.445 176.229C398.088 176.895 399.036 175.99 399.601 174.97H399.606C399.429 175.325 399.903 175.77 400.061 176.608C400.118 176.909 400.132 177.263 400.065 177.68Z" fill="url(#paint4_linear_12452_59705)"/>
<path d="M386.538 240.209C386.284 242.172 376.127 249.85 376.299 248.486C376.467 247.121 381.639 235.38 381.639 235.38C381.96 235.719 382.18 235.92 382.271 235.944C382.783 236.093 383.435 234.791 383.597 234.317C384.962 236.03 386.768 238.457 386.538 240.209Z" fill="#434347"/>
<path d="M393.539 275.473C391.149 270.352 393.539 259.49 393.539 259.49C394.305 260.515 397.207 259.318 397.293 258.892C397.303 258.844 397.327 258.48 397.365 257.868C397.365 257.868 397.748 263.071 398.203 267.48C398.658 271.888 395.928 280.591 393.539 275.473Z" fill="#434347"/>
<path opacity="0.1" d="M392.772 209.842C391.321 210.522 381.915 210.268 381.915 210.268C381.915 210.268 383.639 233.982 383.649 234.154C383.649 234.178 383.635 234.235 383.601 234.317C383.491 234.642 383.146 235.365 382.773 235.729C381.039 227.615 377.581 212.058 380.34 209.387C383.869 205.974 393.428 205.065 393.567 205.812C393.706 206.563 392.772 209.842 392.772 209.842Z" fill="black"/>
<path d="M386.003 198.636C385.864 198.923 385.792 199.163 385.835 199.321C386.041 200.115 384.949 210.067 385.347 211.091C385.744 212.116 385.974 215.356 385.744 217.405C385.514 219.454 381.247 220.703 381.247 218.942C381.247 217.175 381.76 213.025 381.932 211.431C382.104 209.842 380.51 198.325 380.936 196.731C381.214 195.692 382.282 193.931 382.99 192.835C383.369 192.246 383.646 191.844 383.646 191.844C383.709 192.844 387.899 195.592 388.249 195.592C388.249 195.592 386.563 197.478 386.003 198.636Z" fill="url(#paint5_linear_12452_59705)"/>
<path opacity="0.25" d="M407.331 206.707C405.449 206.568 403.332 205.745 401.857 204.266C400.143 202.552 397.284 200.963 394.727 199.761C395.368 199.91 396.01 200.087 396.613 200.288C399.927 201.389 406.244 202.786 407.604 202.001C407.906 203.055 407.973 204.289 407.331 206.707Z" fill="black"/>
<path opacity="0.1" d="M405.362 212.465C403.983 216.012 401.9 220.847 398.83 227.586C398.753 231.009 397.662 252.841 397.365 257.868C397.326 258.48 397.303 258.844 397.293 258.892C397.25 259.112 396.46 259.533 395.598 259.749C395.794 252.387 395.535 236.361 396.78 231.593C398.27 225.887 404.946 213.25 405.362 212.465Z" fill="black"/>
<path d="M397.984 200.714C397.491 200.57 397.026 200.427 396.61 200.288C393.947 199.397 390.624 199.057 389.383 198.713C389.072 198.627 388.895 198.545 388.885 198.45C388.847 197.98 390.039 196.918 390.6 195.807C391.155 194.697 393.028 188.852 392.472 189.154C391.917 189.451 388.632 195.592 388.248 195.592C388.114 195.592 387.453 195.214 386.668 194.682C386.749 194.544 386.84 194.405 386.941 194.256C388.986 191.241 392.343 187.488 392.913 184.247C393.368 181.859 394.053 183.223 393.938 186.296C393.832 189.053 393.684 197.497 397.984 200.714Z" fill="#F5A548"/>
<path d="M407.616 201.992C407.611 201.996 407.607 202.001 407.597 202.001C406.874 202.418 404.757 202.217 402.43 201.776C406.591 197.607 404.321 186.315 404.973 186.894C405.739 187.574 407.616 188.512 407.616 188.512C407.702 191.585 408.943 201.183 407.616 201.992Z" fill="#F5A548"/>
<path opacity="0.25" d="M388.247 195.592C388.247 195.592 386.561 197.478 386.001 198.636C385.986 198.382 385.967 198.148 385.943 197.937C385.814 196.717 383.913 194.065 382.988 192.835C383.367 192.246 383.644 191.844 383.644 191.844C383.707 192.844 387.897 195.592 388.247 195.592Z" fill="black"/>
<path opacity="0.25" d="M399.117 170.811C398.092 173.075 395.08 173.338 393.815 173.343C393.7 173.041 393.619 172.764 393.566 172.539C395.63 172.391 398.307 171.811 399.002 170.682C399.04 170.725 399.078 170.768 399.117 170.811Z" fill="black"/>
<path opacity="0.25" d="M400.061 176.608C399.869 176.757 399.634 176.867 399.342 176.934C397.968 177.245 397 176.977 396.479 176.733C396.364 176.383 396.277 176.158 396.277 176.158V176.153C396.33 176.182 396.387 176.206 396.445 176.23C398.088 176.896 399.036 175.99 399.601 174.97H399.606C399.429 175.325 399.903 175.77 400.061 176.608Z" fill="black"/>
<path d="M413.684 0V212.465" stroke="url(#paint6_linear_12452_59705)" stroke-width="2" stroke-miterlimit="10"/>
<path d="M422.642 187.177C422.633 187.234 422.618 187.292 422.609 187.344C422.044 189.915 419.984 190.188 419.597 190.02C419.209 189.853 418.184 188.675 417.288 184.525C417.269 184.444 417.255 184.362 417.236 184.276C417.236 184.276 415.301 179.317 414.391 176.933C412.145 175.602 411.719 176.143 411.403 174.607C411.091 173.07 412.087 171.084 412.657 170.796C413.227 170.514 415.785 172.903 416.129 173.783C416.469 174.664 423.155 184.448 422.642 187.177Z" fill="url(#paint7_linear_12452_59705)"/>
<path opacity="0.25" d="M422.61 187.344C422.044 189.915 419.985 190.188 419.597 190.02C419.209 189.853 418.185 188.675 417.289 184.525C417.859 185.678 418.735 187.172 419.698 187.789C420.756 188.464 421.944 188.249 422.61 187.344Z" fill="black"/>
<path d="M347.213 321.728L341.724 293.711C337.663 272.989 329.833 257.872 318.235 248.356C306.631 238.845 292.298 235.757 275.235 239.099C258.171 242.44 246.07 250.663 238.939 263.765C231.804 276.871 230.271 293.821 234.347 314.615L239.854 342.737C243.9 363.387 251.721 378.47 263.324 387.981C268.224 391.997 273.616 394.869 279.502 396.588C287.552 398.948 296.526 399.154 306.425 397.22C311.554 396.219 316.238 394.769 320.466 392.873C330.255 388.489 337.639 381.725 342.62 372.573C349.755 359.466 351.283 342.517 347.213 321.728ZM312.952 359.332C311.075 365.077 307.105 368.542 301.042 369.729C294.764 370.96 289.664 369.198 285.727 364.44C283.045 361.199 280.752 356.389 278.85 350.008C278.85 350.003 278.85 349.998 278.85 349.998C278.845 349.989 278.845 349.979 278.841 349.965C277.96 347.007 277.165 343.708 276.456 340.075L268.75 300.743C266.945 290.413 266.94 282.438 268.731 276.818C270.522 271.199 274.488 267.786 280.622 266.589C285.301 265.67 289.338 266.46 292.729 268.949H292.733C293.888 269.801 294.97 270.844 295.976 272.089C299.936 276.986 303.001 284.97 305.166 296.032L312.622 334.092C314.72 345.173 314.83 353.584 312.952 359.332Z" fill="#F5A548"/>
<path d="M280.395 0V248.4" stroke="url(#paint8_linear_12452_59705)" stroke-width="2" stroke-miterlimit="10"/>
<path d="M339.475 152.342C339.475 152.342 335.848 142.404 336.146 141.636C336.445 140.868 340.429 139.418 340.72 139.845C341.011 140.271 343.529 147.992 343.102 148.546C342.675 149.101 339.475 152.342 339.475 152.342Z" fill="#434347"/>
<path d="M279.137 139.311C279.137 139.311 281.351 140.228 282.335 142.617C283.319 145.006 282.935 136.39 282.935 136.39L281.868 135.408L279.137 139.311Z" fill="url(#paint9_linear_12452_59705)"/>
<path d="M277.987 139.311C277.987 139.311 280.761 141.38 281.23 141.508C281.7 141.636 282.606 136.219 282.196 135.366C281.785 134.513 280.281 133.66 279.305 134.214C278.328 134.769 277.532 138.975 277.987 139.311Z" fill="url(#paint10_linear_12452_59705)"/>
<path d="M285.366 139.93C285.366 139.93 283.157 134.811 282.192 133.916C281.226 133.02 279.434 134.171 279.306 134.641C279.178 135.11 281.45 135.451 282.192 136.219C282.933 136.987 280.928 142.66 282.848 144.664C284.768 146.669 285.366 139.93 285.366 139.93Z" fill="url(#paint11_linear_12452_59705)"/>
<path d="M336.746 153.494C336.746 153.494 338.709 152.428 339.136 151.873C339.563 151.319 338.794 149.229 340.032 147.309C341.27 145.39 343.915 145.944 344.555 148.248C345.195 150.551 343.531 153.451 342.763 154.347C341.995 155.243 336.746 158.996 336.746 158.996" fill="url(#paint12_linear_12452_59705)"/>
<path d="M338.151 157.944C338.094 158.284 337.744 158.868 337.064 159.662C334.574 162.573 327.711 168.269 315.341 174.779C315.097 175.775 314.906 176.789 314.762 177.804C314.302 181.045 314.312 184.319 314.465 187.263C314.503 188.019 314.551 188.756 314.604 189.465C314.829 192.567 315.135 195.127 315.054 196.611C315.016 197.262 314.901 197.703 314.68 197.899C314.403 198.143 314.111 198.363 313.804 198.56C307.626 202.523 296.382 196.602 294.562 194.821C294.418 194.682 294.332 194.567 294.313 194.486C293.997 193.289 295.223 192.011 295.908 189.963C296.023 189.613 296.138 188.833 296.253 187.765C296.578 184.611 296.861 178.967 296.961 174.721C297.019 172.012 297.004 169.872 296.88 169.308C296.875 169.298 296.875 169.288 296.875 169.288C296.535 167.896 286.177 152.252 283.069 146.709C282.499 145.699 282.173 145.024 282.192 144.833C282.307 143.584 284.697 139.146 285.209 139.204C285.295 139.213 285.611 139.611 286.09 140.271C288.49 143.603 294.945 153.674 296.133 154.957C297.244 156.158 302.9 162.108 305.323 164.66C306.008 165.373 306.434 165.823 306.434 165.823C307.746 165.799 309.063 165.679 310.38 165.473C322.022 163.678 333.463 155.531 336.456 153.267C336.949 152.894 337.213 152.683 337.213 152.683C337.213 152.683 338.41 156.35 338.151 157.944Z" fill="#FFB156"/>
<path d="M309.098 170.968C305.128 171.609 305.116 166.445 305.322 164.66C306.007 165.373 306.433 165.823 306.433 165.823C307.745 165.799 309.062 165.679 310.379 165.474C310.873 167.508 310.477 170.748 309.098 170.968Z" fill="#F5A548"/>
<path d="M313.124 159.897C312.353 160.361 311.348 160.519 310.064 160.189C309.078 159.94 307.923 159.399 306.578 158.485C306.578 158.485 305.515 159.763 305.428 162.108C302.612 159.677 301.928 157.245 304.317 156.35C303.336 152.085 305.428 151.19 308.924 150.979C312.425 150.764 313.234 154.349 315.327 154.263C315.452 156.173 314.911 158.839 313.124 159.897Z" fill="#E33D15"/>
<path d="M313.122 159.897C313.083 160.242 313.026 160.639 312.944 161.065C312.475 163.559 311.249 167.039 309.401 166.847C309.305 166.843 309.204 166.823 309.099 166.79C307.437 166.268 306.436 164.655 305.914 163.468C305.57 162.697 305.426 162.108 305.426 162.108C305.455 161.367 305.579 160.73 305.737 160.208C306.077 159.083 306.575 158.485 306.575 158.485C307.921 159.399 309.075 159.94 310.062 160.189C311.345 160.519 312.351 160.361 313.122 159.897Z" fill="url(#paint13_linear_12452_59705)"/>
<path d="M309.399 168.317C309.38 169.221 309.256 169.93 308.652 169.973C307.431 170.059 305.808 168.465 305.894 166.732C305.923 166.144 305.932 165.517 305.932 164.942C305.932 164.363 305.923 163.836 305.913 163.468C306.435 164.655 307.436 166.268 309.098 166.79C309.203 166.823 309.304 166.842 309.399 166.847C309.395 167.35 309.414 167.857 309.399 168.317Z" fill="url(#paint14_linear_12452_59705)"/>
<path d="M338.152 157.944C338.095 158.284 337.745 158.868 337.065 159.662C337.099 157.628 336.653 154.541 336.457 153.267C336.95 152.894 337.214 152.683 337.214 152.683C337.214 152.683 338.411 156.35 338.152 157.944Z" fill="#F5A548"/>
<path d="M286.09 140.271C284.271 141.827 283.385 145.216 283.069 146.709C282.499 145.699 282.173 145.024 282.192 144.833C282.307 143.584 284.697 139.146 285.209 139.204C285.295 139.213 285.611 139.611 286.09 140.271Z" fill="#F5A548"/>
<path d="M314.605 189.465C310.535 190.054 302.877 190.575 296.254 187.766C296.58 184.611 296.862 178.968 296.963 174.722C300.243 176.11 307.326 178.58 314.763 177.804C314.184 181.878 314.347 186.009 314.605 189.465Z" fill="#F5A548"/>
<path d="M313.808 198.56C307.151 202.829 294.614 195.625 294.317 194.486C294.001 193.289 295.227 192.011 295.911 189.963C296.026 189.613 296.141 188.833 296.256 187.765C296.582 184.611 296.864 178.967 296.965 174.721C297.022 172.012 297.008 169.872 296.884 169.308C297.027 169.748 299.278 176.88 300.432 183.821C301.629 190.987 301.371 194.4 304.872 196.702C306.921 198.047 310.661 198.756 313.808 198.56Z" fill="#F5A548"/>
<path d="M329.02 218.257C329.02 221.215 318.321 237.605 316.104 240.97C315.85 241.358 315.706 241.574 315.706 241.574C315.706 241.574 314.327 241.416 313.192 241.033C312.402 240.76 311.727 240.386 311.727 239.869C311.727 239.764 311.746 239.601 311.78 239.386C312.158 237.103 314.509 228.841 317.526 217.917C315.936 215.983 304.783 208.588 304.783 208.588C304.783 208.588 304.778 208.598 304.773 208.617C304.29 209.732 288.807 245.518 287.049 248.854C286.987 248.974 286.944 249.05 286.915 249.084C286.12 250.108 282.821 250.218 282.591 248.06C282.591 248.055 282.591 248.055 282.591 248.05C281.643 239.003 289.449 211.718 293.084 199.651C293.735 197.487 294.252 195.812 294.563 194.821C296.383 196.602 307.628 202.523 313.805 198.56C314.112 198.363 314.404 198.143 314.682 197.899C314.902 197.703 315.017 197.262 315.055 196.612C315.17 196.736 315.29 196.87 315.41 197.014C319.72 201.939 329.02 215.409 329.02 218.257Z" fill="#2F2F33"/>
<path d="M288.142 253.861C287.716 255.991 276.447 262.305 277.472 258.485C278.305 255.388 281.437 249.984 282.591 248.05C282.591 248.055 282.591 248.055 282.591 248.06C282.821 250.218 286.121 250.108 286.916 249.084C286.945 249.05 286.988 248.974 287.05 248.854C287.625 250.501 288.42 252.483 288.142 253.861Z" fill="#434347"/>
<path d="M319.804 251.985C318.947 252.411 307.856 248.146 308.11 246.695C308.368 245.245 311.778 239.386 311.778 239.386C311.745 239.601 311.725 239.764 311.725 239.869C311.725 241.119 315.705 241.574 315.705 241.574C315.705 241.574 315.849 241.358 316.102 240.97C316.596 245.398 320.604 251.583 319.804 251.985Z" fill="#434347"/>
<path opacity="0.1" d="M303.332 207.366C303.332 207.366 291.042 231.491 286.434 248.05" stroke="#121316" stroke-width="0.459739" stroke-miterlimit="10"/>
<path opacity="0.25" d="M306.234 207.366C306.234 207.366 319.89 216.324 320.402 217.774C320.914 219.224 313.318 239.386 313.318 239.386" stroke="black" stroke-width="0.459739" stroke-miterlimit="10"/>
<path opacity="0.25" d="M315.412 197.014C313.908 203.016 305.202 201.384 300.748 200.23C298.157 199.56 295.188 199.536 293.086 199.651C293.737 197.487 294.254 195.812 294.566 194.821C296.386 196.602 307.63 202.523 313.808 198.56C314.114 198.363 314.406 198.143 314.684 197.899C314.904 197.703 315.019 197.262 315.058 196.612C315.172 196.736 315.292 196.87 315.412 197.014Z" fill="black"/>
<path opacity="0.25" d="M313.191 241.033C312.401 240.76 311.725 240.386 311.725 239.869C311.725 239.764 311.744 239.601 311.778 239.386C312.156 237.103 314.508 228.841 317.525 217.917C315.935 215.983 304.781 208.588 304.781 208.588C304.781 208.588 305.691 205.52 306.716 205.29C307.741 205.065 319.574 215.241 320.882 217.348C322.036 219.2 313.976 234.307 313.191 241.033Z" fill="#2F2F33"/>
<path opacity="0.25" d="M313.119 159.897C313.081 160.242 313.023 160.639 312.942 161.065C309.958 162.582 307.032 159.165 306.683 159.208C306.481 159.232 306.07 159.749 305.734 160.208C306.074 159.083 306.572 158.485 306.572 158.485C307.918 159.399 309.072 159.94 310.059 160.189C311.342 160.519 312.348 160.361 313.119 159.897Z" fill="black"/>
<path opacity="0.25" d="M309.4 168.317C307.432 167.838 306.345 165.866 305.933 164.942C305.933 164.363 305.924 163.836 305.914 163.468C306.436 164.655 307.437 166.268 309.099 166.79C309.204 166.823 309.305 166.842 309.4 166.847C309.396 167.35 309.415 167.857 309.4 168.317Z" fill="black"/>
<path opacity="0.25" d="M314.762 177.804C314.303 181.045 314.312 184.319 314.465 187.263C313.69 183.993 313.01 180.48 313.805 178.446C315.174 174.942 315.323 174.779 315.342 174.779C315.098 175.775 314.906 176.789 314.762 177.804Z" fill="black"/>
<path d="M218.946 210.445L182.1 204.117L182.042 204.447L100.673 296.018L98.9922 318.909L110.663 320.914L130.863 324.385L157.978 329.042L160.554 329.483L158.615 340.774L157.714 345.997L154.75 363.253L178.733 367.374L191.596 369.581L197.4 335.811L213.587 338.587L218.472 310.168L202.285 307.392L218.946 210.445ZM172.948 257.37L165.434 301.063L156.445 299.517L136.787 296.143L147.672 283.156L150.162 280.184L170.917 255.422L173.853 252.1L172.948 257.37Z" fill="#4991FF"/>
<path opacity="0.15" d="M202.286 307.392L218.473 310.168L213.588 338.587L197.402 335.811L191.598 369.581L178.734 367.374L201.343 226.366L218.947 210.445L202.286 307.392Z" fill="#121316"/>
<path d="M191.27 0V219.781" stroke="url(#paint15_linear_12452_59705)" stroke-width="2" stroke-miterlimit="10"/>
<path opacity="0.03" d="M259.888 169.308C259.888 172.983 256.908 175.962 253.231 175.962C249.555 175.962 246.574 172.983 246.574 169.308C246.574 165.633 249.555 162.654 253.231 162.654C256.908 162.654 259.888 165.633 259.888 169.308Z" fill="white"/>
<path opacity="0.03" d="M491.513 253.869C491.513 257.544 488.533 260.523 484.856 260.523C481.18 260.523 478.199 257.544 478.199 253.869C478.199 250.194 481.18 247.215 484.856 247.215C488.533 247.215 491.513 250.194 491.513 253.869Z" fill="white"/>
<path opacity="0.03" d="M143.443 205.286C143.443 208.961 140.463 211.94 136.786 211.94C133.109 211.94 130.129 208.961 130.129 205.286C130.129 201.611 133.109 198.632 136.786 198.632C140.463 198.632 143.443 201.611 143.443 205.286Z" fill="white"/>
<path opacity="0.03" d="M253.232 408.78C253.232 412.455 250.252 415.434 246.575 415.434C242.898 415.434 239.918 412.455 239.918 408.78C239.918 405.105 242.898 402.126 246.575 402.126C250.252 402.126 253.232 405.105 253.232 408.78Z" fill="white"/>
<path d="M446.798 191.905C448.216 191.905 449.366 190.756 449.366 189.338C449.366 187.921 448.216 186.772 446.798 186.772C445.38 186.772 444.23 187.921 444.23 189.338C444.23 190.756 445.38 191.905 446.798 191.905Z" fill="#FFB156"/>
<path d="M250.665 231.869C252.083 231.869 253.233 230.72 253.233 229.303C253.233 227.885 252.083 226.736 250.665 226.736C249.247 226.736 248.098 227.885 248.098 229.303C248.098 230.72 249.247 231.869 250.665 231.869Z" fill="#00FFA3"/>
<path d="M176.417 194.551C176.417 195.969 175.267 197.117 173.849 197.117C172.431 197.117 171.281 195.969 171.281 194.551C171.281 193.134 172.431 191.985 173.849 191.985C175.267 191.985 176.417 193.134 176.417 194.551Z" fill="#FF317B"/>
<path opacity="0.03" d="M482.613 53.9628C482.613 53.9628 472.352 43.7258 452.902 47.8206C433.453 51.9154 419.783 82.6265 405.622 89.4512C391.462 96.2759 363.543 116.428 361.457 133.651C388.731 110.949 398.972 120.845 416.725 118.115C434.477 115.385 435.843 94.5697 461.447 95.2522C487.051 95.9346 514.363 127.734 539.967 109.957C565.571 92.1811 595.613 71.0245 571.375 53.6216C547.136 36.2186 497.976 62.8349 482.613 53.9628Z" fill="white"/>
<path opacity="0.03" d="M98.2622 118.528C98.2622 118.528 95.5909 132.771 109.942 146.516C124.293 160.262 157.376 154.227 171 162.067C184.624 169.907 217.018 181.589 232.424 173.598C198.287 163.887 200.687 149.853 188.421 136.738C176.155 123.624 158.187 134.235 144.312 112.715C130.437 91.1954 141.308 50.7191 112.182 39.6085C83.0563 28.4981 48.6351 15.6303 47.9255 45.4522C47.2159 75.274 96.9291 100.844 98.2622 118.528Z" fill="white"/>
<path opacity="0.02" d="M544.427 222.717C544.427 222.717 502.777 268.392 493.901 321.945C485.025 375.497 442.331 372.085 427.832 397.336C413.333 422.587 378.779 424.635 362.941 434.872C347.103 445.109 311.021 427.365 304.823 434.872C298.625 442.379 337.188 453.981 387.209 454.663C437.23 455.346 446.789 416.445 491.17 410.985C535.55 405.526 579.931 386.416 595.635 314.075C611.339 241.733 584.711 203.018 544.427 222.717Z" fill="white"/>
<path opacity="0.02" d="M55.7806 223.132C55.7806 223.132 97.4303 268.808 106.306 322.36C115.183 375.912 157.876 372.5 172.375 397.752C186.875 423.003 221.429 425.05 237.267 435.287C253.104 445.524 289.187 427.78 295.384 435.287C301.582 442.794 263.019 454.396 212.998 455.079C162.977 455.761 153.418 416.861 109.038 411.401C64.6568 405.941 20.276 386.832 4.57203 314.49C-11.1319 242.149 15.4965 203.434 55.7806 223.132Z" fill="white"/>
</g>
<defs>
<linearGradient id="paint0_linear_12452_59705" x1="96.0334" y1="244.214" x2="96.9714" y2="235.341" gradientUnits="userSpaceOnUse">
<stop stop-color="#FFC5AE"/>
<stop offset="1" stop-color="#EA8B6A"/>
</linearGradient>
<linearGradient id="paint1_linear_12452_59705" x1="107.861" y1="241.246" x2="99.6675" y2="241.844" gradientUnits="userSpaceOnUse">
<stop stop-color="#FFC5AE"/>
<stop offset="1" stop-color="#EA8B6A"/>
</linearGradient>
<linearGradient id="paint2_linear_12452_59705" x1="97.1331" y1="274.675" x2="104.637" y2="247.715" gradientUnits="userSpaceOnUse">
<stop stop-color="#FFC5AE"/>
<stop offset="1" stop-color="#EA8B6A"/>
</linearGradient>
<linearGradient id="paint3_linear_12452_59705" x1="396.799" y1="175.837" x2="397.14" y2="168.031" gradientUnits="userSpaceOnUse">
<stop stop-color="#FFC5AE"/>
<stop offset="1" stop-color="#EA8B6A"/>
</linearGradient>
<linearGradient id="paint4_linear_12452_59705" x1="398.311" y1="179.156" x2="398.055" y2="173.611" gradientUnits="userSpaceOnUse">
<stop stop-color="#FFC5AE"/>
<stop offset="1" stop-color="#EA8B6A"/>
</linearGradient>
<linearGradient id="paint5_linear_12452_59705" x1="381.191" y1="221.013" x2="387.33" y2="181.088" gradientUnits="userSpaceOnUse">
<stop stop-color="#FFC5AE"/>
<stop offset="1" stop-color="#EA8B6A"/>
</linearGradient>
<linearGradient id="paint6_linear_12452_59705" x1="414.184" y1="0" x2="414.184" y2="212.465" gradientUnits="userSpaceOnUse">
<stop stop-color="#434347" stop-opacity="0"/>
<stop offset="1" stop-color="#434347"/>
</linearGradient>
<linearGradient id="paint7_linear_12452_59705" x1="415.57" y1="172.858" x2="420.346" y2="198.054" gradientUnits="userSpaceOnUse">
<stop stop-color="#FFC5AE"/>
<stop offset="1" stop-color="#EA8B6A"/>
</linearGradient>
<linearGradient id="paint8_linear_12452_59705" x1="280.895" y1="0" x2="280.895" y2="248.4" gradientUnits="userSpaceOnUse">
<stop stop-color="#434347" stop-opacity="0"/>
<stop offset="1" stop-color="#434347"/>
</linearGradient>
<linearGradient id="paint9_linear_12452_59705" x1="280.02" y1="135.693" x2="283.006" y2="142.04" gradientUnits="userSpaceOnUse">
<stop stop-color="#FFC5AE"/>
<stop offset="1" stop-color="#EA8B6A"/>
</linearGradient>
<linearGradient id="paint10_linear_12452_59705" x1="275.492" y1="135.536" x2="282.916" y2="138.652" gradientUnits="userSpaceOnUse">
<stop stop-color="#FFC5AE"/>
<stop offset="1" stop-color="#EA8B6A"/>
</linearGradient>
<linearGradient id="paint11_linear_12452_59705" x1="279.75" y1="133.147" x2="284.526" y2="143.301" gradientUnits="userSpaceOnUse">
<stop stop-color="#FFC5AE"/>
<stop offset="1" stop-color="#EA8B6A"/>
</linearGradient>
<linearGradient id="paint12_linear_12452_59705" x1="347.808" y1="143.193" x2="334.245" y2="159.323" gradientUnits="userSpaceOnUse">
<stop stop-color="#FFC5AE"/>
<stop offset="1" stop-color="#EA8B6A"/>
</linearGradient>
<linearGradient id="paint13_linear_12452_59705" x1="309.855" y1="167.769" x2="308.405" y2="150.878" gradientUnits="userSpaceOnUse">
<stop stop-color="#FFC5AE"/>
<stop offset="1" stop-color="#EA8B6A"/>
</linearGradient>
<linearGradient id="paint14_linear_12452_59705" x1="307.372" y1="167.901" x2="308.054" y2="163.55" gradientUnits="userSpaceOnUse">
<stop stop-color="#FFC5AE"/>
<stop offset="1" stop-color="#EA8B6A"/>
</linearGradient>
<linearGradient id="paint15_linear_12452_59705" x1="191.77" y1="0" x2="191.77" y2="219.781" gradientUnits="userSpaceOnUse">
<stop stop-color="#434347" stop-opacity="0"/>
<stop offset="1" stop-color="#434347"/>
</linearGradient>
<clipPath id="clip0_12452_59705">
<rect width="600" height="455" fill="white"/>
</clipPath>
</defs>
</svg>
