<svg width="32" height="32" viewBox="0 0 32 32" fill="none" xmlns="http://www.w3.org/2000/svg">
<circle cx="16" cy="16" r="16" fill="#201C70"/>
<g clip-path="url(#clip0_13405_1997)">
<path d="M16 7C14.22 7 12.4799 7.52784 10.9999 8.51677C9.51983 9.50571 8.36628 10.9113 7.68509 12.5558C7.0039 14.2004 6.82567 16.01 7.17294 17.7558C7.5202 19.5016 8.37737 21.1053 9.63604 22.364C10.8947 23.6226 12.4984 24.4798 14.2442 24.8271C15.99 25.1743 17.7996 24.9961 19.4442 24.3149C21.0887 23.6337 22.4943 22.4802 23.4832 21.0001C24.4722 19.5201 25 17.78 25 16C24.9974 13.6138 24.0484 11.3262 22.3611 9.63889C20.6738 7.95162 18.3862 7.00258 16 7V7ZM23.5 16C23.5005 17.4619 23.0712 18.8917 22.2655 20.1115C21.6188 19.3916 21.2577 18.4602 21.25 17.4925V16H16.75C16.5511 16 16.3603 15.921 16.2197 15.7803C16.079 15.6397 16 15.4489 16 15.25V14.5H18.25V11.5H20.4355L21.2673 10.6683C21.9746 11.3643 22.5364 12.1942 22.9197 13.1096C23.3031 14.025 23.5003 15.0076 23.5 16V16ZM8.53675 16.7223L11.5645 19.75H14.5C14.6989 19.75 14.8897 19.829 15.0303 19.9697C15.171 20.1103 15.25 20.3011 15.25 20.5V23.4618C13.5251 23.2857 11.9143 22.5184 10.6907 21.29C9.4671 20.0616 8.70609 18.4478 8.53675 16.7223V16.7223ZM16.75 23.4618V20.5C16.75 19.9033 16.513 19.331 16.091 18.909C15.669 18.4871 15.0967 18.25 14.5 18.25H12.1855L8.62225 14.6868C8.83689 13.4667 9.35106 12.3189 10.1186 11.3465C10.8862 10.3742 11.8832 9.60753 13.0201 9.11546C14.157 8.62339 15.3983 8.42126 16.6326 8.52721C17.8669 8.63316 19.0556 9.04387 20.092 9.7225L19.8145 10H16.75V13H14.5V15.25C14.5 15.8467 14.7371 16.419 15.159 16.841C15.581 17.2629 16.1533 17.5 16.75 17.5H19.75C19.7482 18.9209 20.3066 20.2852 21.304 21.2973C20.0824 22.5243 18.4728 23.2893 16.75 23.4618V23.4618Z" fill="white"/>
</g>
<defs>
<clipPath id="clip0_13405_1997">
<rect width="18" height="18" fill="white" transform="translate(7 7)"/>
</clipPath>
</defs>
</svg>
