<svg width="486" height="294" viewBox="0 0 486 294" fill="none" xmlns="http://www.w3.org/2000/svg">
<path d="M460.361 285.618H5.08471C5.08471 285.618 -11.2134 220.677 14.5486 176.777C40.3106 132.876 91.8345 141.656 104.448 83.189C117.061 24.7217 186.36 -17.3614 267.075 7.14635C347.789 31.6541 343.004 82.5325 391.62 91.4881C432.09 98.9397 468.86 112.553 484.013 189.893C490.862 224.769 479.281 276.098 460.361 285.618Z" fill="url(#paint0_linear_13926_7173)"/>
<path opacity="0.5" d="M471.575 293.969H10.2213C9.75634 293.969 9.29589 293.861 8.86629 293.651C8.43669 293.441 8.04634 293.133 7.71753 292.746C7.38873 292.358 7.1279 291.898 6.94996 291.391C6.77201 290.885 6.68042 290.342 6.68042 289.793V289.793C6.68042 288.686 7.05348 287.624 7.71753 286.841C8.38158 286.058 9.28223 285.618 10.2213 285.618H471.603C472.543 285.618 473.443 286.058 474.107 286.841C474.771 287.624 475.144 288.686 475.144 289.793C475.144 290.344 475.052 290.89 474.872 291.399C474.692 291.908 474.429 292.369 474.097 292.758C473.765 293.146 473.372 293.453 472.939 293.66C472.506 293.868 472.042 293.973 471.575 293.969Z" fill="#363288"/>
<path d="M433.074 254.451H412.171L414.516 285.669H430.568L433.074 254.451Z" fill="#100D4A"/>
<path d="M453.444 228.051C453.355 228.311 451.825 232.579 443.416 233.749C434.853 234.952 435.706 241.847 427.431 242.401H426.999C426.755 242.401 426.838 231.82 429.133 227.685C431.427 223.55 439.786 220.729 445.035 224.298C450.284 227.868 453.444 228.051 453.444 228.051Z" fill="url(#paint1_linear_13926_7173)"/>
<path d="M423.041 254.451C423.041 254.451 426.921 228.4 441.77 228.533C441.77 228.533 428.839 227.978 424.587 254.451H423.041Z" fill="#05CC85"/>
<path d="M453.41 228.067C453.322 228.328 451.792 232.596 443.383 233.765C434.853 234.952 435.706 241.847 427.431 242.401L427.331 242.329C427.331 242.329 431.682 242.495 434.692 236.31C437.702 230.124 441.155 232.014 445.118 231.792C449.081 231.57 452.557 229.653 453.41 228.067Z" fill="#05CC85"/>
<path d="M415.47 234.968C415.47 234.968 408.159 233.488 405.359 228.727C402.56 223.965 400.748 226.415 398.863 220.357C396.979 214.299 396.79 211.039 395.299 209.626C395.299 209.626 407.554 209.803 412.205 216.732C416.855 223.661 415.47 234.968 415.47 234.968Z" fill="url(#paint2_linear_13926_7173)"/>
<path d="M418.696 254.451C418.696 254.451 415.592 222.037 400.958 215.058C400.958 215.058 416.75 221.338 420.309 254.451H418.696Z" fill="#05CC85"/>
<path d="M414.61 234.752C414.61 234.752 414.755 232.95 410.647 231.626C406.54 230.301 403.957 226.787 403.957 226.787C403.957 226.787 406.845 233.532 414.61 234.752Z" fill="#05CC85"/>
<path d="M395.532 209.626C395.532 209.626 398.032 212.032 399.412 217.774C400.52 222.253 400.365 223.372 403.037 225.756C403.037 225.756 399.523 224.797 398.242 219.614C396.962 214.432 397.05 212.12 395.532 209.626Z" fill="#05CC85"/>
<path d="M421.677 229.281C421.677 229.281 428.395 228.111 429.565 221.676C430.734 215.241 432.491 214.47 435.917 213.229C439.342 211.987 443.638 206.184 444.336 203.058L433.007 209.626L425.469 210.89L421.677 229.281Z" fill="#05CC85"/>
<path d="M421.677 229.281C421.677 229.281 413.546 221.521 418.246 213.595C423.462 204.776 422.259 201.861 428.395 200.292C434.531 198.723 440.656 204.033 444.337 203.063C444.337 203.063 442.214 210.563 433.074 212.58C423.933 214.598 431.898 224.387 421.677 229.281Z" fill="url(#paint3_linear_13926_7173)"/>
<path d="M420.946 254.451C420.946 254.451 417.021 215.49 431.178 205.23C431.178 205.23 425.048 209.626 422.625 226.787C421.381 235.966 421.381 245.272 422.625 254.451H420.946Z" fill="#05CC85"/>
<path d="M221.389 126.958H203.753V129.054H221.389V126.958Z" fill="#383485"/>
<path d="M233.731 132.061H203.753V134.157H233.731V132.061Z" fill="#383485"/>
<path d="M230.833 137.163H203.753V139.259H230.833V137.163Z" fill="#383485"/>
<path d="M162.1 94.3916H144.464V96.0617H162.1V94.3916Z" fill="#383485"/>
<path d="M174.442 101.072H144.464V102.742H174.442V101.072Z" fill="#383485"/>
<path d="M171.545 107.752H144.464V109.423H171.545V107.752Z" fill="#383485"/>
<path d="M255.075 207.316L277.003 285.669H280.143L262.49 203.984L255.075 207.316Z" fill="#16124E"/>
<path d="M215.719 213.646L197.832 285.669H194.692L206.734 213.646H215.719Z" fill="#16124E"/>
<path d="M280.636 156.411C279.241 174.281 274.598 209.628 259.759 213.62C245.914 217.353 231.151 216.902 223.401 216.275C219.978 216 217.932 215.682 217.932 215.682C197.941 213.177 197.606 205.896 199.11 201.871C200.613 197.846 221.272 194.472 226.666 188.927C232.061 183.383 225.464 146.44 244.445 142.908C254.273 141.079 263.776 142.014 270.657 143.342C273.639 143.907 276.307 145.553 278.148 147.966C279.99 150.378 280.876 153.385 280.636 156.411Z" fill="#78F7FF" fill-opacity="0.89"/>
<path d="M280.636 156.411C279.241 174.281 274.598 209.629 259.76 213.62C245.914 217.353 231.151 216.902 223.401 216.276C230.566 211.14 238.992 205.228 238.992 205.228C238.992 205.228 259.576 209.762 268.82 199.015C276.001 190.665 278.715 162.448 279.567 150.298C280.443 152.21 280.811 154.315 280.636 156.411Z" fill="#78F7FF" fill-opacity="0.89"/>
<path d="M241.383 216.457L258.473 285.669H261.613L249.956 215.638L241.383 216.457Z" fill="#16124E"/>
<path d="M228.963 183.049C228.963 183.049 238.783 188.059 262.548 185.312L261.212 179.291H231.226L228.963 183.049Z" fill="#1933AE"/>
<path d="M185.039 265.402C185.039 265.402 183.828 269.51 183.786 269.686C183.561 270.621 180.321 270.913 179.394 272.901C178.785 274.075 177.872 275.065 176.749 275.766C175.627 276.466 174.337 276.853 173.014 276.884C170.367 276.967 171.962 274.997 173.524 271.932C174.497 269.88 175.116 267.677 175.352 265.419L185.039 265.402Z" fill="#D2A6AE"/>
<path d="M184.922 285.668H182.617C182.768 282.069 182.5 277.234 182.5 277.234C181.665 283.789 178.492 285.242 170.684 285.585C168.673 285.707 166.654 285.609 164.664 285.292C164.285 285.229 163.934 285.054 163.655 284.79C163.376 284.525 163.183 284.184 163.099 283.809C163.016 283.434 163.046 283.043 163.187 282.685C163.327 282.327 163.571 282.02 163.887 281.802C165.448 280.702 166.902 279.458 168.229 278.086C172.805 273.451 175.202 265.861 175.352 265.385C175.116 267.644 174.497 269.846 173.524 271.898C171.962 274.963 170.367 276.909 173.014 276.85C174.337 276.819 175.627 276.433 176.749 275.732C177.872 275.031 178.785 274.042 179.394 272.867C179.743 272.09 180.045 271.292 180.296 270.479C180.64 269.443 181.187 268.487 181.903 267.664C182.62 266.841 183.493 266.169 184.471 265.685L185.064 265.368C185.064 265.368 185.064 265.168 185.114 264.8C185.504 265.331 185.754 265.951 185.841 266.604C187.686 277.693 184.922 285.668 184.922 285.668Z" fill="#1A1A1C"/>
<path d="M186.559 260.091L185.039 265.402C183.882 266.078 182.62 266.558 181.306 266.821C180.274 267.069 179.197 267.07 178.164 266.823C177.13 266.577 176.17 266.09 175.361 265.402L176.121 260.391L186.559 260.091Z" fill="#D2A6AE"/>
<path d="M228.963 183.049C228.963 183.049 198.442 192.927 190.5 204.618C182.559 216.309 176.02 253.778 174.76 260.709C174.76 260.709 178.267 265.201 187.21 261.869C187.21 261.869 190.884 252.859 195.419 240.993C199.953 229.127 204.696 222.722 204.663 215.942L233.205 210.196L242.023 185.303L228.963 183.049Z" fill="url(#paint4_linear_13926_7173)"/>
<path d="M237.23 264.834C237.627 265.858 237.945 266.91 238.182 267.982C238.031 269.218 234.449 271.13 233.839 272.901C233.366 274.077 232.552 275.085 231.501 275.795C230.451 276.504 229.212 276.884 227.944 276.884C225.305 276.967 226.666 274.997 227.852 271.932C228.571 269.977 228.936 267.91 228.929 265.828L237.23 264.834Z" fill="#D2A6AE"/>
<path d="M240.253 285.669H237.99C237.697 282.07 236.846 277.235 236.846 277.235C236.846 283.79 233.806 285.243 226.048 285.585C224.023 285.706 221.99 285.608 219.986 285.293C218.241 284.993 217.481 282.788 218.783 281.803C220.215 280.709 221.522 279.463 222.683 278.087C226.716 273.427 228.854 266.162 228.963 265.795C228.969 267.877 228.604 269.944 227.886 271.899C226.7 274.964 225.339 276.909 227.977 276.851C229.245 276.851 230.484 276.471 231.535 275.762C232.585 275.052 233.4 274.044 233.873 272.868C234.171 271.965 234.4 271.041 234.558 270.104C235.209 266.396 238.232 265.745 238.215 265.344C238.489 265.735 238.713 266.158 238.883 266.605C242.048 277.694 240.253 285.669 240.253 285.669Z" fill="#1A1A1C"/>
<path d="M236.27 259.924C236.411 262.429 238.332 265.644 238.332 265.644C238.332 265.644 236.086 267.08 234.992 267.205C232.916 267.363 230.838 266.941 228.988 265.986C228.984 265.933 228.984 265.88 228.988 265.828C228.854 265.293 228.453 263.506 227.827 260.884C231.009 261.569 233.464 261.778 236.27 259.924Z" fill="#D2A6AE"/>
<path d="M252.603 209.412C244.67 212.819 223.643 217.195 223.643 217.195C225.894 223.044 227.785 229.026 229.305 235.107C232.645 248.543 237.447 262.162 237.447 262.162C237.029 262.404 236.612 262.621 236.228 262.822C236.011 262.939 235.793 263.047 235.576 263.139C230.407 265.603 227.276 264.809 227.276 264.809C227.276 264.809 222.165 257.002 214.441 241.879C206.809 226.956 200.538 212.994 208.387 205.613C217.205 197.312 238.282 184.344 238.282 184.344L256.853 185.07H257.597L262.549 185.262C264.82 193.83 260.536 206.013 252.603 209.412Z" fill="url(#paint5_linear_13926_7173)"/>
<path d="M237.856 149.505C237.856 149.505 236.278 152.144 234.366 155.35C232.061 159.183 229.255 163.801 228.203 165.504L227.602 166.465C226.492 168.336 225.203 170.096 223.752 171.717C222.491 173.062 219.978 172.394 219.31 173.387C218.642 174.381 215.969 173.73 216.612 173.387C217.255 173.045 217.297 169.02 216.871 166.506C216.843 166.192 216.742 165.889 216.574 165.622C216.407 165.354 216.179 165.13 215.909 164.967C215.639 164.805 215.334 164.708 215.02 164.685C214.705 164.662 214.39 164.714 214.099 164.836L214.516 163.918C214.942 162.991 216.612 163.25 216.537 162.573C216.462 161.897 217.456 161.145 218.633 160.553C219.811 159.96 224.261 144.52 227.067 140.144C229.873 135.768 232.453 135.835 232.453 135.835L237.856 149.505Z" fill="url(#paint6_linear_13926_7173)"/>
<path opacity="0.1" d="M234.366 155.351C232.061 159.183 229.255 163.801 228.203 165.505L227.602 166.465C225.172 164.344 223.485 158.24 225.982 153.413C227.826 149.693 229.476 145.88 230.925 141.99C230.925 141.99 233.723 152.612 234.366 155.351Z" fill="black"/>
<path d="M214.541 164.719L198.901 170.44V174.114C198.901 174.114 203.978 174.156 208.78 174.047C212.12 173.98 215.669 174.097 217.038 173.546C217.038 173.546 218.541 163.701 214.541 164.719Z" fill="#DEBCC2"/>
<path d="M263.876 154.34C263.801 161.062 263.576 168.193 263.125 172.21C263.041 172.936 262.432 180.694 261.989 181.32C261.404 182.155 251.484 182.665 240.987 182.08C230.491 181.496 229.681 180.201 229.422 178.94C229.371 178.19 229.371 177.437 229.422 176.686C229.422 175.909 229.497 175.016 229.547 173.972C229.547 173.713 229.547 173.446 229.547 173.137C229.547 172.185 229.631 171.183 229.664 170.172V169.605C229.664 168.987 229.664 168.36 229.714 167.759C229.773 164.603 228.253 161.78 227.827 160.72C226.733 158.031 226.224 154.256 229.255 146.524C232.286 138.791 231.601 136.787 232.361 135.785C233.121 134.783 239.618 134.699 239.618 134.699L255.893 134.416C255.893 134.416 261.029 134.983 263.634 137.839C263.876 138.065 264.018 145.881 263.876 154.34Z" fill="url(#paint7_linear_13926_7173)"/>
<path d="M244.728 102.275C244.728 102.275 244.336 97.9073 250.023 95.327C255.709 92.7467 260.979 98.2414 260.979 98.2414C260.979 98.2414 258.999 97.089 257.638 97.3228C257.638 97.3228 262.933 97.5733 263.358 105.465C263.784 113.356 259.751 123.836 261.296 124.295C262.841 124.754 264.185 123.042 264.185 123.042C264.185 123.042 264.36 127.877 258.958 129.631C253.555 131.385 249.872 124.554 249.872 124.554L244.728 102.275Z" fill="#C45312"/>
<path d="M247.234 100.721C247.234 100.721 248.795 98.55 252.119 100.638C255.442 102.725 257.071 105.556 256.645 107.744C256.219 109.932 247.234 100.721 247.234 100.721Z" fill="#E07334"/>
<path d="M234.524 120.537C234.524 120.537 236.144 126.383 233.614 129.046C233.379 125.591 232.78 122.171 231.827 118.842C230.215 113.097 230.441 109.782 231.693 108.396C232.011 108.006 232.413 107.694 232.868 107.481C233.324 107.269 233.821 107.162 234.324 107.168C234.324 107.168 235.651 102.233 240.228 101.072C244.804 99.9115 253.196 99.9783 256.645 107.753C260.093 115.527 258.181 122.341 251.392 126.641C244.603 130.942 234.524 120.537 234.524 120.537Z" fill="#C45312"/>
<path d="M240.871 143.559C241.126 144.074 241.51 144.515 241.985 144.838C242.461 145.161 243.012 145.356 243.585 145.404C244.425 145.435 245.259 145.239 245.998 144.837C250.657 142.582 256.018 134.449 256.018 134.449H255.801C254.413 134.35 253.038 134.121 251.693 133.764C251.272 131.164 251.168 128.523 251.384 125.898C251.509 124.086 251.693 122.825 251.693 122.825H251.593C250.682 123.125 243.944 125.447 242.858 129.138C242.728 129.585 242.686 130.052 242.733 130.516C242.805 131.106 242.805 131.704 242.733 132.294C242.709 132.652 242.611 133.001 242.446 133.319C242.282 133.638 242.053 133.919 241.775 134.145C241.497 134.372 241.175 134.538 240.83 134.635C240.485 134.732 240.124 134.756 239.768 134.707V134.808C239.66 135.618 239.234 140.745 240.871 143.559Z" fill="#D2A6AE"/>
<path d="M251.659 122.783C251.637 123.814 251.534 124.842 251.35 125.856C250.966 128.027 250.123 130.867 248.244 132.712C244.962 135.935 242.207 135.71 242.683 132.286C242.764 131.696 242.764 131.098 242.683 130.507C242.636 130.044 242.678 129.577 242.808 129.13C244.595 125.906 250.716 123.184 251.543 122.817L251.659 122.783Z" fill="#B77E8A"/>
<path d="M236.595 110.851C236.595 110.851 236.203 116.37 233.798 118.082C233.798 118.082 235.802 125.689 238.39 129.364C240.979 133.038 241.731 134.023 245.973 131.794C250.215 129.564 251.818 128.186 251.977 122.391C251.977 122.391 253.839 122.466 254.265 119.468C254.691 116.47 250.849 116.045 250.524 119.159C248.653 116.395 243.008 118.558 241.989 115.56C242.242 116.198 242.644 116.766 243.161 117.216C243.678 117.666 244.296 117.986 244.962 118.149C244.962 118.149 236.954 117.606 236.595 110.851Z" fill="#D2A6AE"/>
<path d="M240.871 143.56C241.126 144.075 241.51 144.516 241.985 144.839C242.461 145.162 243.012 145.357 243.584 145.405C244.425 145.436 245.259 145.24 245.998 144.837C244.953 145.025 243.876 144.882 242.916 144.428C239.459 142.817 239.668 135.76 239.718 134.833C239.66 135.618 239.234 140.746 240.871 143.56Z" fill="#E56C6C"/>
<path d="M212.262 170.44C212.262 170.44 207.435 169.279 206.466 169.379C205.498 169.479 200.128 173.554 200.963 173.997C201.798 174.44 202.942 173.554 202.942 173.554C202.942 173.554 202.675 174.005 203.377 174.064C203.901 174.046 204.404 173.851 204.805 173.513C204.805 173.513 204.579 173.989 205.038 174.064C205.498 174.139 206.358 173.496 206.358 173.496C206.358 173.496 206.007 173.955 206.425 174.064C206.842 174.172 207.41 173.496 207.41 173.496C208.982 173.97 210.621 174.179 212.262 174.114V170.44Z" fill="#EA8375"/>
<path opacity="0.1" d="M263.876 154.34C263.801 161.062 263.576 168.193 263.125 172.21C263.072 173.37 262.924 174.523 262.682 175.659C260.369 175.575 256.386 173.989 252.778 173.989H229.581V173.153L229.697 170.189V169.621C229.697 169.621 234.708 168.653 237.388 165.646C240.069 162.64 242.591 162.957 245.939 161.112C249.288 159.267 255.016 146.323 255.016 146.323L263.876 154.34Z" fill="black"/>
<path d="M263.726 137.872C263.726 137.872 260.119 136.202 256.753 142.49C253.388 148.778 251.217 161.429 249.238 161.905C247.259 162.381 246.816 163.817 247.108 164.41C247.401 165.003 244.996 164.828 244.687 166.765C245.064 166.588 245.478 166.501 245.895 166.511C246.312 166.52 246.721 166.627 247.089 166.823C247.458 167.018 247.776 167.296 248.018 167.635C248.261 167.975 248.421 168.366 248.486 168.778C249.011 170.499 249.04 172.334 248.57 174.072C248.57 174.072 250.332 174.322 250.925 173.729C251.517 173.137 255.459 173.145 256.77 170.965C258.081 168.786 262.198 158.941 264.102 153.822C266.006 148.703 265.713 139.426 263.726 137.872Z" fill="url(#paint8_linear_13926_7173)"/>
<path d="M244.729 166.757L225.982 170.381C225.982 170.381 219.393 169.88 218.466 169.755C217.539 169.63 215.318 169.88 214.642 170.381C213.965 170.882 210.617 173.788 211.493 174.08C211.81 174.141 212.136 174.13 212.448 174.049C212.76 173.968 213.05 173.819 213.297 173.613C213.297 173.613 213.13 174.214 214.132 174.147C214.75 174.099 215.335 173.853 215.802 173.446C215.802 173.446 215.134 174.222 215.928 174.156C216.527 174.061 217.098 173.833 217.598 173.488C217.598 173.488 217.097 174.08 217.681 174.08C218.361 173.978 219.025 173.792 219.66 173.529C219.66 173.529 221.589 173.822 223.602 174.156C224.995 174.336 226.41 174.262 227.777 173.939C227.777 173.939 244.403 174.423 248.653 174.08C248.612 174.064 251.3 165.488 244.729 166.757Z" fill="#D2A6AE"/>
<path d="M134.051 265.402C134.051 265.402 135.262 269.51 135.303 269.686C135.529 270.621 138.769 270.913 139.696 272.901C140.305 274.075 141.219 275.064 142.341 275.764C143.463 276.465 144.753 276.852 146.076 276.884C148.723 276.967 147.128 274.997 145.574 271.932C144.596 269.881 143.975 267.678 143.737 265.419L134.051 265.402Z" fill="#D2A6AE"/>
<path d="M134.168 285.668H136.473C136.322 282.069 136.589 277.234 136.589 277.234C137.425 283.789 140.598 285.242 148.405 285.585C150.417 285.707 152.436 285.609 154.426 285.292C154.805 285.229 155.156 285.054 155.435 284.79C155.714 284.525 155.907 284.184 155.991 283.809C156.074 283.434 156.044 283.043 155.903 282.685C155.763 282.327 155.519 282.02 155.203 281.802C153.642 280.702 152.188 279.458 150.861 278.086C146.284 273.451 143.888 265.861 143.738 265.385C143.975 267.645 144.596 269.847 145.575 271.898C147.128 274.963 148.723 276.909 146.076 276.85C144.753 276.818 143.463 276.431 142.341 275.731C141.219 275.03 140.305 274.041 139.696 272.867C139.346 272.09 139.045 271.292 138.794 270.479C138.45 269.443 137.903 268.487 137.187 267.664C136.47 266.841 135.597 266.169 134.619 265.685L134.026 265.368C134.026 265.368 134.026 265.168 133.976 264.8C133.59 265.333 133.34 265.952 133.249 266.604C131.404 277.693 134.168 285.668 134.168 285.668Z" fill="#1A1A1C"/>
<path d="M132.423 260.417L134.051 265.427C135.208 266.103 136.47 266.583 137.784 266.846C138.816 267.094 139.893 267.095 140.926 266.849C141.96 266.602 142.92 266.115 143.729 265.427C143.729 265.427 143.479 264.041 142.969 260.609C140.447 261.352 132.423 260.417 132.423 260.417Z" fill="#D2A6AE"/>
<path d="M121.5 163.801C121.5 163.801 132.414 189.078 136.447 210.205C140.481 231.332 140.138 242.772 144.172 261.653C144.172 261.653 136.447 265.778 131.571 261.653C131.571 261.653 128.23 252.325 124.347 238.38C120.464 224.434 120.172 215.374 120.172 215.374L104.214 191.859L110.118 164.995L121.5 163.801Z" fill="url(#paint9_linear_13926_7173)"/>
<path d="M89.1584 264.834C88.8885 265.867 88.6987 266.92 88.5906 267.982C88.8912 269.218 92.7074 271.13 93.5257 272.901C94.1359 274.076 95.0508 275.066 96.1746 275.767C97.2984 276.467 98.5899 276.853 99.9139 276.884C102.553 276.967 100.958 274.997 99.4045 271.932C98.4576 270.014 97.8421 267.951 97.5841 265.828L89.1584 264.834Z" fill="#D2A6AE"/>
<path d="M88.6656 285.669H90.962C90.8117 282.07 91.0873 277.235 91.0873 277.235C91.9223 283.79 95.0872 285.243 102.903 285.585C104.915 285.707 106.934 285.609 108.924 285.293C109.303 285.23 109.654 285.055 109.933 284.79C110.212 284.526 110.405 284.185 110.488 283.81C110.572 283.435 110.541 283.043 110.401 282.686C110.261 282.328 110.017 282.021 109.701 281.803C108.135 280.706 106.678 279.461 105.35 278.087C100.749 273.427 97.7426 266.162 97.584 265.795C97.842 267.918 98.4575 269.981 99.4044 271.899C100.958 274.964 102.553 276.909 99.9138 276.851C98.5898 276.82 97.2983 276.434 96.1745 275.734C95.0507 275.033 94.1358 274.043 93.5256 272.868C93.129 271.969 92.7915 271.046 92.5152 270.104C92.2484 269.299 91.8122 268.56 91.236 267.938C90.6599 267.316 89.9571 266.824 89.175 266.496C88.8228 266.34 88.4823 266.159 88.1563 265.953L88.1061 265.344C87.926 265.746 87.7997 266.17 87.7304 266.605C85.9016 277.694 88.6656 285.669 88.6656 285.669Z" fill="#1A1A1C"/>
<path d="M88.1396 265.377L88.1897 265.987C89.2566 266.655 90.4617 267.072 91.7137 267.206L91.555 266.554L97.5841 265.82C97.5841 265.82 90.1354 261.227 88.1396 265.377Z" fill="#04AF86"/>
<path d="M87.8223 260.125C87.9726 262.63 88.0895 264.467 88.1396 265.377L88.1897 265.987C89.2565 266.655 90.4616 267.072 91.7136 267.206C93.7394 267.381 95.7722 266.957 97.559 265.987C97.559 265.987 97.559 265.936 97.559 265.828C97.6258 265.293 97.8178 263.506 98.1185 260.884C94.9954 261.569 90.8535 261.987 87.8223 260.125Z" fill="#D2A6AE"/>
<path d="M104.857 222.088C97.6341 239.39 99.3209 261.653 99.3209 261.653C96.326 262.78 93.1058 263.178 89.9266 262.813L89.2001 262.696C88.15 262.527 87.138 262.174 86.2106 261.653C84.5405 254.02 82.3527 236.71 83.8641 224.785C85.3756 212.861 89.4089 209.161 86.0436 194.214C82.6783 179.266 90.5696 163.801 90.5696 163.801L114.285 164.987C114.485 169.221 112.081 204.794 104.857 222.088Z" fill="url(#paint10_linear_13926_7173)"/>
<path d="M93.2168 195.717C93.3337 211.8 92.0561 215.499 90.578 219.775C89.6808 222.245 88.9827 224.784 88.4904 227.365C86.8704 235.791 88.8662 254.329 89.9267 262.813L89.2002 262.696C88.1313 254.087 86.169 235.682 87.7973 227.232C88.2882 224.617 88.9948 222.047 89.91 219.549C91.363 215.324 92.6239 211.683 92.507 195.725C92.34 172.503 98.3524 166.273 98.5778 166.014L99.0789 166.515C99.0204 166.582 93.0581 172.887 93.2168 195.717Z" fill="#3952C9"/>
<path d="M122.469 162.557L123.404 168.352C117.932 170.554 112.049 171.552 106.157 171.277C100.265 171.002 94.5014 169.46 89.2585 166.757L90.3107 161.212L122.469 162.557Z" fill="#FFC500"/>
<path d="M132.222 152.377C128.439 152.695 127.855 148.461 127.103 147.96C126.352 147.459 125.533 147.384 125.433 146.123C125.366 145.488 124.849 145.238 124.164 144.787C123.208 144.184 122.428 143.34 121.901 142.34C121.241 141.121 119.095 137.706 116.891 134.274C114.093 129.89 111.204 125.464 111.204 125.464L117.751 119.167C119.96 119.588 121.962 120.745 123.429 122.449C125.329 124.761 127.07 127.2 128.64 129.748C130.56 132.871 133.333 136.503 134.552 138.616C137.333 143.417 140.163 151.743 132.222 152.377Z" fill="#FFC500"/>
<path opacity="0.65" d="M134.827 139.133C132.768 140.175 130.941 141.624 129.458 143.392C129.458 143.392 130.594 138.332 134.042 137.822L134.827 139.133Z" fill="#E5970C"/>
<path opacity="0.65" d="M124.139 144.787C123.183 144.184 122.403 143.34 121.876 142.34C121.216 141.121 119.07 137.706 116.865 134.274C118.318 129.973 119.671 126.023 119.671 126.023C120.518 127.96 121.538 129.816 122.719 131.568C124.773 134.75 126.093 140.036 124.139 144.787Z" fill="#E5970C"/>
<path d="M128.74 150.34C126.343 147.701 130.168 142.248 135.963 139.008C141.758 135.768 151.245 129.898 151.245 129.898L154.267 135.259C154.267 135.259 149.733 140.311 144.105 145.43C138.477 150.549 131.846 153.747 128.74 150.34Z" fill="#F79886"/>
<path d="M151.245 129.881C151.964 128.516 152.802 127.217 153.75 125.998C154.994 124.495 157.09 122.992 157.566 123.234C158.042 123.477 156.681 125.389 156.397 125.957C156.121 126.634 155.881 127.325 155.679 128.028C155.679 128.028 159.695 125.873 160.372 124.938C161.048 124.003 162.877 121.806 163.478 122.024C164.079 122.241 163.178 124.37 163.178 124.37C163.178 124.37 164.589 121.815 165.282 122.007C165.975 122.199 165.015 124.771 165.015 124.771C165.015 124.771 165.616 123.101 166.392 123.518C167.169 123.936 165.282 127.209 165.282 127.209C165.282 127.209 166.117 125.623 166.818 125.898C167.52 126.174 166.033 128.879 164.589 131.259C163.144 133.639 154.652 135.042 154.652 135.042L154.217 135.334L151.245 129.881Z" fill="#F79886"/>
<path d="M134.827 139.134C134.882 139.07 134.95 139.019 135.027 138.984C135.103 138.949 135.186 138.931 135.27 138.931C135.354 138.931 135.437 138.949 135.513 138.984C135.59 139.019 135.658 139.07 135.713 139.134C135.713 139.134 133.441 139.91 134.827 143.15C136.214 146.39 139.278 149.58 140.33 148.445C139.503 149.481 138.496 150.36 137.358 151.042C135.621 152.01 131.905 153.705 129.709 151.743C127.512 149.781 126.978 146.925 127.479 145.539C127.98 144.152 134.827 139.134 134.827 139.134Z" fill="#FFC500"/>
<path d="M122.552 144.328C122.126 145.388 122.06 148.252 122.126 151.409C122.193 154.565 122.385 158.089 122.469 160.302C122.519 161.053 122.519 161.806 122.469 162.557C122.218 163.818 119.964 165.062 109.45 165.663C98.9369 166.264 90.9037 162.031 90.3109 161.196C89.718 160.361 90.2274 158.849 90.3944 155.993C90.4695 154.691 90.2441 151.401 89.9685 148.186C89.6428 144.361 89.2587 140.67 89.2587 140.67L83.8643 122.6C84.1624 122.148 84.4916 121.719 84.8496 121.314C87.455 118.458 94.4861 118.015 94.4861 118.015L110.761 118.299C110.761 118.299 117.258 118.366 118.018 119.376C118.778 120.387 118.101 122.399 121.124 130.123C124.147 137.848 123.646 141.647 122.552 144.328Z" fill="#FFC500"/>
<path opacity="0.65" d="M94.7784 133.639L88.457 138.006L89.2921 140.712C89.2921 140.712 89.6178 144.002 89.7514 145.514C92.9496 142.825 94.7784 133.639 94.7784 133.639Z" fill="#E5970C"/>
<path d="M101.551 168.394C101.425 168.995 99.5966 168.853 98.9703 168.786C99.3545 168.853 100.131 169.053 100.131 169.621C100.131 170.356 97.1082 169.922 97.1082 169.922C97.1082 169.922 98.6113 170.256 98.4944 170.84C98.3775 171.425 96.7324 171.575 94.0435 170.84C91.3547 170.106 87.9226 163.818 87.9226 163.818L91.6135 160.319C92.7216 160.298 93.8243 160.161 94.9036 159.91C96.0644 159.626 97.7345 159.726 97.8514 160.06C97.9683 160.394 97.4422 160.895 96.5069 161.154C95.5717 161.413 94.5279 161.83 94.5279 161.83C95.5635 163.386 97.0492 164.589 98.7866 165.279C101.626 166.356 102.185 167.392 99.5716 167.166C99.5716 167.149 101.701 167.659 101.551 168.394Z" fill="#F79886"/>
<path d="M91.6135 160.302L87.9225 163.801C87.9225 163.801 79.6305 156.286 77.309 153.78C76.3586 152.714 75.3345 151.715 74.2444 150.791C74.2444 150.791 74.2861 145.522 77.2422 145.455C78.9506 145.407 80.6522 145.69 82.2525 146.29C85.3673 149.772 89.2586 157.02 91.6135 160.302Z" fill="#F79886"/>
<path d="M83.8643 122.616C83.8643 122.616 77.1171 132.578 75.6557 134.85C74.1944 137.121 70.946 140.386 70.946 142.215C70.946 144.044 71.9565 144.795 71.2049 146.557C70.4534 148.319 74.996 151.367 74.996 151.367C74.996 151.367 73.518 149.697 76.5576 147.818C78.2447 146.717 80.2413 146.187 82.2526 146.307C82.2526 146.307 83.1378 145.096 82.4447 144.82C81.7516 144.545 82.1274 144.102 83.071 143.785C84.0146 143.467 90.1606 135.919 90.1606 135.919L83.8643 122.616Z" fill="#FFC500"/>
<path d="M104.073 85.6737C104.073 85.6737 104.073 81.2897 98.1353 79.2772C92.1981 77.2648 87.5135 83.2354 87.5135 83.2354C87.5135 83.2354 89.3756 81.8909 90.7618 81.9911C90.7618 81.9911 85.5177 82.7511 85.8601 90.6506C86.2024 98.5502 91.2211 108.537 89.7347 109.197C88.2483 109.857 86.7285 108.22 86.7285 108.22C86.7285 108.22 87.0291 113.055 92.5739 114.274C98.1186 115.493 101.116 108.345 101.116 108.345L104.073 85.6737Z" fill="#C45312"/>
<path d="M101.434 84.3709C101.434 84.3709 99.6716 82.3668 96.5652 84.7551C93.4588 87.1433 92.1144 90.1328 92.7407 92.2705C93.367 94.4083 101.434 84.3709 101.434 84.3709Z" fill="#E07334"/>
<path d="M116.005 102.867C116.005 102.867 114.953 108.813 117.726 111.218C117.642 107.755 117.922 104.293 118.561 100.888C119.613 95.0429 119.07 91.7027 117.684 90.4752C117.333 90.116 116.904 89.842 116.431 89.6741C115.958 89.5062 115.452 89.4489 114.953 89.5065C114.953 89.5065 113.149 84.7217 108.49 84.0119C103.83 83.3021 95.4715 84.1789 92.7826 92.2372C90.0937 100.295 92.6657 106.901 99.8471 110.533C107.029 114.166 116.005 102.867 116.005 102.867Z" fill="#C45312"/>
<path d="M109.601 127.142C109.346 127.656 108.964 128.096 108.49 128.419C108.016 128.742 107.467 128.938 106.895 128.987C106.052 129.015 105.216 128.819 104.473 128.42C99.8223 126.165 94.4529 118.032 94.4529 118.032H94.6783C96.0635 117.938 97.4365 117.711 98.7784 117.355C99.2019 114.756 99.3085 112.114 99.0958 109.489C98.9622 107.677 98.7784 106.416 98.7784 106.416H98.8787C99.7889 106.717 106.528 109.03 107.613 112.729C107.75 113.175 107.795 113.643 107.747 114.107C107.671 114.697 107.671 115.295 107.747 115.886C107.771 116.243 107.869 116.592 108.033 116.911C108.198 117.229 108.427 117.51 108.705 117.737C108.983 117.963 109.304 118.13 109.649 118.226C109.995 118.323 110.356 118.348 110.711 118.299C110.709 118.332 110.709 118.366 110.711 118.399C110.837 119.201 111.237 124.328 109.601 127.142Z" fill="#D2A6AE"/>
<path d="M98.8118 106.399C98.8343 107.43 98.9376 108.458 99.1207 109.472C99.5049 111.644 100.357 114.483 102.235 116.328C105.509 119.551 108.265 119.318 107.789 115.902C107.716 115.312 107.716 114.714 107.789 114.124C107.836 113.661 107.793 113.193 107.663 112.746C105.876 109.522 99.7637 106.8 98.9287 106.433L98.8118 106.399Z" fill="#B77E8A"/>
<path d="M112.999 93.4229C112.999 93.4229 113.926 98.8841 116.481 100.354C116.481 100.354 115.229 108.12 112.999 112.045C110.77 115.969 110.143 116.996 105.693 115.193C101.242 113.389 99.5216 112.17 98.8118 106.416C98.8118 106.416 96.958 106.667 96.2482 103.727C95.5384 100.788 99.3128 99.9947 99.9391 103.059C101.542 100.128 107.388 101.732 108.089 98.6503C107.9 99.3094 107.556 99.9135 107.085 100.412C106.614 100.91 106.031 101.288 105.384 101.515C105.384 101.515 113.292 100.187 112.999 93.4229Z" fill="#D2A6AE"/>
<path d="M109.601 127.142C109.346 127.656 108.963 128.096 108.49 128.419C108.016 128.743 107.467 128.938 106.895 128.988C106.052 129.016 105.216 128.82 104.473 128.42C105.519 128.611 106.598 128.465 107.555 128.002C111.012 126.391 110.803 119.343 110.761 118.416C110.836 119.201 111.237 124.328 109.601 127.142Z" fill="#E56C6C"/>
<path d="M365.335 135.259C365.335 135.259 369.886 130.9 374.162 125.773C378.437 120.646 379.706 119.093 379.706 119.093C379.706 119.093 381.26 113.548 382.353 111.744C383.447 109.94 384.199 109.306 384.783 109.239C385.368 109.172 384.491 111.218 384.241 113.189C384.079 113.963 384.037 114.757 384.115 115.544C384.115 115.544 391.297 112.053 392.174 110.291C393.051 108.529 394.32 106.684 394.821 106.642C395.322 106.6 395.322 108.237 395.322 108.237C395.322 108.237 395.622 106.809 396.157 106.809C396.691 106.809 397.042 108.028 396.741 110.149C396.741 110.149 397.042 108.93 397.576 108.888C398.111 108.846 397.743 111.535 397.326 112.337C397.326 112.337 398.078 111.41 398.286 111.452C398.495 111.494 398.837 114.182 395.781 118.024C392.725 121.865 385.577 123.034 385.577 123.034C385.577 123.034 376.567 142.741 373.418 145.138C370.27 147.534 363.531 143.944 363.398 143.376C363.264 142.808 365.335 135.259 365.335 135.259Z" fill="#D2A6AE"/>
<path d="M334.956 85.6737C334.956 85.6737 334.956 81.2897 340.893 79.2772C346.831 77.2648 351.557 83.2354 351.557 83.2354C351.557 83.2354 349.695 81.8909 348.309 81.9911C348.309 81.9911 353.553 82.7511 353.21 90.6506C352.868 98.5502 347.849 108.537 349.336 109.197C350.822 109.857 352.342 108.22 352.342 108.22C352.342 108.22 352.041 113.055 346.496 114.274C340.952 115.493 337.954 108.345 337.954 108.345L334.956 85.6737Z" fill="#C45312"/>
<path d="M337.595 84.3709C337.595 84.3709 339.357 82.3668 342.463 84.7551C345.569 87.1433 346.914 90.1328 346.288 92.2705C345.661 94.4083 337.595 84.3709 337.595 84.3709Z" fill="#E07334"/>
<path d="M323.023 102.867C323.023 102.867 324.075 108.813 321.303 111.218C321.4 107.756 321.134 104.294 320.51 100.888C319.457 95.0429 320 91.7027 321.386 90.4752C321.737 90.116 322.166 89.842 322.639 89.6741C323.113 89.5062 323.618 89.4489 324.117 89.5065C324.117 89.5065 325.921 84.7217 330.58 84.0119C335.24 83.3021 343.599 84.1789 346.288 92.2372C348.976 100.295 346.404 106.901 339.223 110.533C332.042 114.166 323.023 102.867 323.023 102.867Z" fill="#C45312"/>
<path d="M327.532 265.402C327.532 265.402 326.321 269.51 326.28 269.686C326.063 270.621 322.814 270.913 321.887 272.901C321.279 274.075 320.365 275.065 319.243 275.766C318.12 276.466 316.83 276.853 315.508 276.884C312.86 276.967 314.464 274.997 316.017 271.932C316.999 269.883 317.618 267.679 317.846 265.419L327.532 265.402Z" fill="#D2A6AE"/>
<path d="M327.415 285.668H325.111C325.269 282.069 325.002 277.234 325.002 277.234C324.167 283.789 320.994 285.242 313.186 285.585C311.172 285.707 309.15 285.609 307.157 285.292C306.778 285.229 306.427 285.054 306.148 284.79C305.869 284.525 305.676 284.184 305.592 283.809C305.509 283.434 305.539 283.043 305.68 282.685C305.82 282.327 306.064 282.02 306.38 281.802C307.941 280.702 309.395 279.458 310.723 278.086C315.299 273.451 317.695 265.861 317.846 265.385C317.618 267.645 316.999 269.849 316.017 271.898C314.464 274.963 312.86 276.909 315.507 276.85C316.83 276.819 318.12 276.433 319.243 275.732C320.365 275.031 321.278 274.042 321.887 272.867C322.237 272.09 322.538 271.292 322.789 270.479C323.133 269.443 323.679 268.486 324.396 267.663C325.113 266.841 325.986 266.168 326.964 265.685L327.549 265.368C327.549 265.368 327.549 265.168 327.599 264.8C327.988 265.332 328.241 265.952 328.334 266.604C330.179 277.693 327.415 285.668 327.415 285.668Z" fill="#1A1A1C"/>
<path d="M327.983 260.417C327.791 262.496 327.658 264.049 327.582 264.834C327.582 265.201 327.532 265.402 327.532 265.402C326.379 266.079 325.12 266.559 323.808 266.821C322.774 267.069 321.696 267.069 320.661 266.823C319.627 266.576 318.665 266.089 317.854 265.402C317.854 265.402 317.771 263.631 317.604 260.675C320.993 261.768 324.653 261.677 327.983 260.417Z" fill="#D2A6AE"/>
<path d="M338.196 190.348L335.691 199.366L333.854 205.88L330.68 217.069C332.285 224.393 332.682 231.93 331.858 239.382C331.023 247.281 330.079 255.674 329.486 260.826C325.209 262.083 320.674 262.173 316.351 261.085C315.716 251.766 314.205 230.605 312.551 215.157C310.364 194.79 315.641 168.336 315.641 168.336L333.453 158.549L334.405 164.828L336.91 181.596L338.196 190.348Z" fill="url(#paint11_linear_13926_7173)"/>
<path d="M359.598 264.834C359.868 265.867 360.058 266.92 360.166 267.982C359.865 269.218 356.049 271.13 355.231 272.901C354.621 274.076 353.706 275.066 352.582 275.767C351.458 276.467 350.167 276.853 348.843 276.884C346.204 276.967 347.799 274.997 349.352 271.932C350.299 270.014 350.915 267.951 351.173 265.828L359.598 264.834Z" fill="#D2A6AE"/>
<path d="M360.091 285.669H357.794C357.945 282.07 357.669 277.235 357.669 277.235C356.834 283.79 353.669 285.243 345.853 285.585C343.842 285.707 341.823 285.609 339.832 285.293C339.454 285.23 339.102 285.055 338.824 284.79C338.545 284.526 338.351 284.185 338.268 283.81C338.185 283.435 338.215 283.043 338.355 282.686C338.496 282.328 338.74 282.021 339.056 281.803C340.621 280.706 342.078 279.461 343.406 278.087C348.008 273.427 351.014 266.162 351.172 265.795C350.914 267.918 350.299 269.981 349.352 271.899C347.799 274.964 346.204 276.909 348.843 276.851C350.167 276.82 351.458 276.434 352.582 275.734C353.706 275.033 354.621 274.043 355.231 272.868C355.627 271.969 355.965 271.046 356.241 270.104C356.508 269.299 356.944 268.56 357.52 267.938C358.097 267.316 358.799 266.824 359.581 266.496C359.934 266.34 360.274 266.159 360.6 265.953L360.65 265.344C360.83 265.746 360.957 266.17 361.026 266.605C362.855 277.694 360.091 285.669 360.091 285.669Z" fill="#1A1A1C"/>
<path d="M360.934 260.125C360.784 262.63 360.667 264.467 360.617 265.377L360.567 265.987C359.5 266.655 358.295 267.072 357.043 267.206C355.017 267.381 352.984 266.957 351.198 265.987C351.198 265.987 351.198 265.936 351.198 265.828C351.131 265.293 350.939 263.506 350.638 260.884C353.761 261.569 357.903 261.987 360.934 260.125Z" fill="#D2A6AE"/>
<path d="M363.748 233.678C363.306 242.212 362.504 253.778 361.995 260.667C361.322 261.019 360.614 261.299 359.882 261.502C359.648 261.569 359.414 261.619 359.181 261.669C356.131 262.175 353.013 262.093 349.995 261.427C348.5 250.454 344.784 224.852 341.252 215.725C339.298 210.656 337.302 204.61 335.682 199.383C333.536 192.494 332.016 187.007 332.016 187.007C327.006 181.162 325.01 168.035 325.01 168.035C328.046 166.717 331.185 165.652 334.396 164.853C340.041 163.475 346.713 162.933 349.778 166.774C355.623 174.072 356.258 187.6 356.258 187.6L359.732 213.545C359.732 213.545 364.425 220.743 363.748 233.678Z" fill="url(#paint12_linear_13926_7173)"/>
<path d="M360.525 239.407C359.949 251.014 359.857 257.87 359.882 261.485C359.648 261.552 359.415 261.602 359.181 261.652C359.181 258.062 359.231 251.156 359.824 239.373C360.751 220.484 354.989 214.121 354.93 214.071L354.847 213.979V213.846C353.605 198.104 349.984 182.641 344.108 167.985L344.751 167.701C350.643 182.379 354.283 197.863 355.548 213.629C356.292 214.555 361.427 221.202 360.525 239.407Z" fill="#3952C9"/>
<path d="M316.56 162.557L315.649 168.352C321.121 170.555 327.004 171.552 332.896 171.277C338.788 171.002 344.552 169.46 349.795 166.757L348.717 161.196L316.56 162.557Z" fill="#FFC500"/>
<path d="M321.303 119.167C319.094 119.589 317.093 120.746 315.625 122.449C313.375 125.337 311.276 128.339 309.337 131.443C307.416 134.557 305.687 138.123 304.452 140.244C301.654 145.046 300.978 154.707 304.786 154.699C308.593 154.691 310.096 150.148 310.848 149.647C311.6 149.146 312.426 149.079 312.518 147.818C312.61 146.557 315.599 145.113 317.111 142.34C318.622 139.568 327.825 125.464 327.825 125.464L321.303 119.167Z" fill="#EFB30A"/>
<path d="M374.671 143.701C374.796 144.002 372.817 148.328 370.972 148.787C369.126 149.246 368.959 151.551 366.863 152.269C364.767 152.987 360.934 154.123 357.369 149.998C355.122 147.409 352.692 144.386 351.198 142.482L351.014 142.248L350.63 141.756L350.17 141.171C350.003 140.962 349.895 140.812 349.836 140.729L349.77 140.662C349.77 140.662 349.386 144.353 349.068 148.177C348.795 150.771 348.653 153.377 348.642 155.985C348.801 158.841 349.31 160.352 348.717 161.187C348.125 162.022 340.075 166.198 329.578 165.638C319.081 165.079 316.819 163.793 316.56 162.532C316.509 161.781 316.509 161.028 316.56 160.277C316.643 158.048 316.844 154.565 316.91 151.384C316.977 148.202 316.91 145.363 316.476 144.303C315.391 141.622 314.881 137.848 317.904 130.107C320.927 122.366 320.259 120.37 321.01 119.36C321.762 118.349 328.275 118.282 328.275 118.282L344.542 117.999C344.542 117.999 351.573 118.441 354.179 121.297C356.784 124.153 360.692 133.472 361.527 134.14C362.174 134.812 362.679 135.607 363.014 136.478C363.374 136.379 363.715 136.221 364.024 136.011C364.542 135.652 364.341 135.125 365.56 135.1C366.087 135.1 364.842 136.286 365.811 138.382C366.78 140.478 369.21 144.227 371.656 144.227C374.103 144.227 374.546 143.409 374.671 143.701Z" fill="#FFC500"/>
<path d="M344.542 118.032C344.542 118.032 337.11 129.372 332.133 128.988C327.156 128.604 328.275 118.316 328.275 118.316C328.631 118.365 328.992 118.34 329.337 118.243C329.682 118.147 330.004 117.98 330.282 117.754C330.56 117.527 330.789 117.246 330.953 116.928C331.118 116.609 331.216 116.26 331.24 115.903C331.313 115.312 331.313 114.715 331.24 114.124C331.193 113.661 331.235 113.193 331.365 112.746C332.451 109.047 339.19 106.734 340.1 106.433H340.2C340.2 106.433 340.016 107.694 339.891 109.506C339.675 112.131 339.779 114.772 340.2 117.372C341.622 117.734 343.077 117.955 344.542 118.032Z" fill="#D2A6AE"/>
<path d="M340.217 106.399C340.194 107.43 340.091 108.458 339.908 109.472C339.523 111.644 338.672 114.483 336.793 116.328C333.519 119.551 332.818 119.952 331.24 115.902C331.312 115.312 331.312 114.714 331.24 114.124C331.193 113.661 331.235 113.193 331.365 112.746C333.152 109.522 339.265 106.8 340.1 106.433L340.217 106.399Z" fill="#B77E8A"/>
<path d="M326.029 93.4229C326.029 93.4229 325.102 98.8841 322.547 100.354C322.547 100.354 323.8 108.12 326.029 112.045C328.259 115.969 328.885 116.996 333.336 115.193C337.787 113.389 339.507 112.17 340.217 106.416C340.217 106.416 342.071 106.667 342.78 103.727C343.49 100.788 339.716 99.9947 339.089 103.059C337.486 100.128 331.641 101.732 330.939 98.6503C331.128 99.3094 331.473 99.9135 331.943 100.412C332.414 100.91 332.998 101.288 333.645 101.515C333.645 101.515 325.737 100.187 326.029 93.4229Z" fill="#D2A6AE"/>
<path opacity="0.65" d="M333.645 148.202C333.645 148.202 331.257 151.225 324.117 156.678C321.888 158.415 319.31 159.651 316.56 160.302C316.643 158.072 316.852 151.384 316.919 148.202L318.405 149.371L333.645 148.202Z" fill="#E5970C"/>
<path d="M332.812 119.96L314.512 120.999C313.886 121.035 313.407 121.571 313.443 122.197L314.977 149.218C315.013 149.844 315.549 150.323 316.175 150.287L334.475 149.248C335.101 149.213 335.58 148.676 335.545 148.05L334.01 121.029C333.975 120.403 333.438 119.924 332.812 119.96Z" fill="#3453E3"/>
<path d="M311.474 140.762C311.474 140.762 316.635 140.453 318.021 140.136C319.407 139.818 320.76 139.426 320.601 138.916C320.443 138.407 320.067 138.407 320.067 138.407C320.067 138.407 321.395 138.023 321.42 137.522C321.445 137.021 320.292 136.896 320.292 136.896C320.292 136.896 321.645 136.737 321.645 136.06C321.645 135.384 319.816 135.309 319.816 135.309C319.816 135.309 321.67 134.866 320.986 134.015C320.301 133.163 314.088 133.447 314.088 133.447L313.879 131.401C312.854 131.569 311.848 131.834 310.873 132.194C309.203 132.787 306.698 137.388 306.698 137.388C306.698 137.388 301.095 144.127 300.017 147.025C298.94 149.922 299.892 154.073 300.852 154.891C301.813 155.709 305.863 155.275 307.399 152.185C308.936 149.096 310.03 142.591 311.474 140.762Z" fill="#D2A6AE"/>
<path opacity="0.65" d="M344.25 133.639L349.77 140.712C349.77 140.712 349.386 144.403 349.068 148.228C345.837 145.505 344.25 133.639 344.25 133.639Z" fill="#E5970C"/>
<path d="M331.766 120.011H330.43C330.43 120.011 328.76 121.681 328.317 128.052C327.91 134.228 327.91 140.423 328.317 146.599L310.464 147.835C310.464 147.835 309.437 121.489 314.38 120.988C314.38 121.004 326.238 118.666 331.766 120.011Z" fill="#F4E1EA"/>
<path d="M330.422 119.777C330.422 119.777 328.752 118.499 326.681 128.27C325.563 133.33 324.726 138.448 324.175 143.601L307.299 144.895C307.299 144.895 309.42 123.117 314.347 121.005C319.6 119.706 325.032 119.291 330.422 119.777Z" fill="#FFF7F8"/>
<path opacity="0.65" d="M363.014 136.511C363.014 136.511 360.241 137.18 358.922 142.056C358.922 142.056 359.139 133.447 361.828 134.466C362.321 135.086 362.721 135.775 363.014 136.511Z" fill="#E5970C"/>
<path d="M150.702 182.514L149.232 186.238L143.788 200.084L110.068 285.668H105.701L134.235 197.153L137.75 186.238L138.953 182.514H150.702Z" fill="#16124E"/>
<path d="M324.384 285.668H320.017L286.298 200.084L280.845 186.238L279.375 182.514H291.133L292.327 186.238L295.851 197.153L324.384 285.668Z" fill="#16124E"/>
<path d="M321.829 174.064H118.953V176.21H321.829V174.064Z" fill="#9895CD"/>
<path d="M125.55 176.068H315.24V178.331C315.24 179.438 314.8 180.5 314.017 181.283C313.234 182.066 312.172 182.506 311.065 182.506H129.725C128.618 182.506 127.556 182.066 126.773 181.283C125.99 180.5 125.55 179.438 125.55 178.331V176.068Z" fill="#7C78B6"/>
<path d="M217.113 172.886H209.063V174.089H219.134L218.232 173.304C217.921 173.035 217.524 172.887 217.113 172.886Z" fill="#B9B9EA"/>
<path d="M212.479 174.064H178.876C178.086 174.066 177.318 173.798 176.7 173.305C176.082 172.811 175.651 172.122 175.478 171.35L170.392 148.804L170.3 148.403C170.268 148.256 170.269 148.105 170.303 147.959C170.337 147.813 170.403 147.676 170.497 147.559C170.59 147.442 170.709 147.348 170.844 147.283C170.98 147.218 171.127 147.184 171.277 147.184H204.93C205.35 147.186 205.758 147.329 206.087 147.591C206.415 147.854 206.646 148.219 206.742 148.628L212.479 174.064Z" fill="#A9A5E1"/>
<path d="M210.917 174.064H178.876C178.086 174.066 177.318 173.798 176.7 173.305C176.082 172.811 175.651 172.122 175.478 171.35L170.392 148.804H204.421C204.649 148.804 204.869 148.882 205.047 149.025C205.225 149.167 205.348 149.366 205.398 149.589L210.917 174.064Z" fill="url(#paint13_linear_13926_7173)"/>
<path d="M192.68 161.062C192.955 162.448 192.171 163.567 190.918 163.567C190.247 163.511 189.613 163.236 189.114 162.783C188.616 162.33 188.281 161.725 188.162 161.062C187.887 159.667 188.672 158.557 189.924 158.557C190.595 158.612 191.229 158.888 191.728 159.341C192.226 159.794 192.561 160.399 192.68 161.062Z" fill="#BAB8E6"/>
<defs>
<linearGradient id="paint0_linear_13926_7173" x1="243" y1="0.0307617" x2="243" y2="285.618" gradientUnits="userSpaceOnUse">
<stop stop-color="#282575"/>
<stop offset="1" stop-color="#201C70"/>
</linearGradient>
<linearGradient id="paint1_linear_13926_7173" x1="453.444" y1="222.447" x2="430.995" y2="242.401" gradientUnits="userSpaceOnUse">
<stop stop-color="#02F19A"/>
<stop offset="1" stop-color="#125E45"/>
</linearGradient>
<linearGradient id="paint2_linear_13926_7173" x1="395.244" y1="208.589" x2="399.951" y2="236.602" gradientUnits="userSpaceOnUse">
<stop stop-color="#02F19A"/>
<stop offset="1" stop-color="#125E45"/>
</linearGradient>
<linearGradient id="paint3_linear_13926_7173" x1="444.337" y1="199.671" x2="414.252" y2="218.382" gradientUnits="userSpaceOnUse">
<stop stop-color="#02F19A"/>
<stop offset="1" stop-color="#125E45"/>
</linearGradient>
<linearGradient id="paint4_linear_13926_7173" x1="247.175" y1="165.371" x2="179.536" y2="263.072" gradientUnits="userSpaceOnUse">
<stop stop-color="#FFB64F"/>
<stop offset="1" stop-color="#464294"/>
</linearGradient>
<linearGradient id="paint5_linear_13926_7173" x1="251.162" y1="203.052" x2="224.038" y2="260.222" gradientUnits="userSpaceOnUse">
<stop stop-color="#FFC574"/>
<stop offset="1" stop-color="#464294"/>
</linearGradient>
<linearGradient id="paint6_linear_13926_7173" x1="225.977" y1="135.835" x2="225.977" y2="173.915" gradientUnits="userSpaceOnUse">
<stop stop-color="#4263FF"/>
<stop offset="1" stop-color="#142EA5"/>
</linearGradient>
<linearGradient id="paint7_linear_13926_7173" x1="245.454" y1="134.416" x2="245.454" y2="182.332" gradientUnits="userSpaceOnUse">
<stop stop-color="#4263FF"/>
<stop offset="1" stop-color="#142EA5"/>
</linearGradient>
<linearGradient id="paint8_linear_13926_7173" x1="255.035" y1="137.671" x2="255.035" y2="174.124" gradientUnits="userSpaceOnUse">
<stop stop-color="#4263FF"/>
<stop offset="1" stop-color="#142EA5"/>
</linearGradient>
<linearGradient id="paint9_linear_13926_7173" x1="124.193" y1="163.801" x2="124.193" y2="263.486" gradientUnits="userSpaceOnUse">
<stop stop-color="#3150DE"/>
<stop offset="1" stop-color="#1E3186"/>
</linearGradient>
<linearGradient id="paint10_linear_13926_7173" x1="98.8266" y1="163.801" x2="98.8266" y2="262.944" gradientUnits="userSpaceOnUse">
<stop stop-color="#3150DE"/>
<stop offset="1" stop-color="#1E3186"/>
</linearGradient>
<linearGradient id="paint11_linear_13926_7173" x1="325.108" y1="158.549" x2="325.108" y2="261.84" gradientUnits="userSpaceOnUse">
<stop stop-color="#3150DE"/>
<stop offset="1" stop-color="#1E3186"/>
</linearGradient>
<linearGradient id="paint12_linear_13926_7173" x1="344.413" y1="163.821" x2="344.413" y2="261.996" gradientUnits="userSpaceOnUse">
<stop stop-color="#3150DE"/>
<stop offset="1" stop-color="#1E3186"/>
</linearGradient>
<linearGradient id="paint13_linear_13926_7173" x1="190.655" y1="148.804" x2="190.655" y2="174.064" gradientUnits="userSpaceOnUse">
<stop stop-color="#9490D3"/>
<stop offset="1" stop-color="#9490D3" stop-opacity="0"/>
</linearGradient>
</defs>
</svg>
