<svg width="73" height="82" viewBox="0 0 73 82" fill="none" xmlns="http://www.w3.org/2000/svg">
<g opacity="0.5" clip-path="url(#clip0_13516_5149)">
<path d="M19.1982 52.4655L19.3729 52.5884C19.2246 52.6135 19.1982 52.4655 19.1982 52.4655Z" fill="url(#paint0_linear_13516_5149)"/>
<path d="M32.6626 78.2489C32.4879 78.126 31.5454 77.9808 30.3672 77.7993C29.2764 77.6793 27.9844 77.2883 27.2775 77.1794C27.6085 76.8944 27.8786 76.6961 28.297 76.4726C28.6281 76.1876 28.8982 75.9892 29.2293 75.7042L29.6821 75.246C29.7431 75.1594 29.804 75.0728 29.9523 75.0477L30.4052 74.5895L31.1017 73.7849L31.7983 72.9803C32.3121 72.4355 32.6777 71.9158 33.0168 71.2481C36.0974 66.6831 37.571 61.2467 37.3263 56.0255C37.1735 53.4582 36.6367 50.8798 35.6815 48.5249C34.7264 46.17 33.2045 44.0638 31.108 42.589C29.0114 41.1142 26.5148 40.3937 24.0285 40.5867C22.7549 40.7265 21.5951 41.0758 20.5755 41.7826C19.5559 42.4895 18.6502 43.4059 18.0674 44.42C17.4846 45.4341 17.1639 46.6326 17.1397 47.7808C17.1156 48.9289 17.4144 50.1748 18.1316 51.1972C19.4179 53.2671 21.88 54.2223 24.0352 54.3143C26.2778 54.4677 28.3617 53.7328 30.0963 52.7521C31.9182 51.8329 33.3906 50.6678 34.9505 49.5642C40.9277 44.9654 45.3244 39.6432 48.0981 34.215C49.5155 31.4577 50.4006 28.7143 50.9282 26.1078C51.4559 23.5014 51.6869 20.9452 51.4996 18.6126C51.3996 16.3414 51.0031 14.1206 50.5112 12.221C50.0192 10.3214 49.3445 8.68163 48.6353 7.27653C47.217 4.46632 45.6606 2.59477 44.4721 1.4998C43.2227 0.491436 42.5238 -0.000167361 42.5238 -0.000167361C42.4629 0.0864392 42.4893 0.234495 42.979 0.837863C43.1801 1.10882 43.556 1.50268 44.0457 2.10605C44.1859 2.46361 44.387 2.73457 44.7629 3.12843C45.0514 3.46084 45.3663 3.9413 45.6813 4.42177C45.9962 4.90223 46.2503 5.46931 46.7399 6.07267C47.0813 6.7012 47.51 7.39117 47.7296 8.19291C48.4652 9.74607 49.1054 11.6205 49.5284 13.9894C50.0123 16.2717 50.2789 19.0485 49.9788 22.074C49.7983 23.63 49.5569 25.2727 49.1672 26.9405C48.7166 28.6949 48.0304 30.413 47.2832 32.2177C44.9015 37.2743 41.4979 41.7416 37.4908 45.3959C35.531 47.2538 33.3091 48.9274 31.1216 50.3663C28.9342 51.8052 26.5456 52.9731 24.1548 52.8449C23.003 52.8114 21.7984 52.4819 20.9248 51.8674C19.9903 51.3395 19.2995 50.4652 19.0271 49.3673C18.5087 47.3197 19.2984 44.8976 20.9801 43.6208C22.6618 42.3439 25.0607 42.0895 27.1469 42.6508C29.2332 43.2121 31.0677 44.5026 32.301 46.2764C33.5953 47.9636 34.4976 50.0224 35.016 52.07C35.5343 54.1177 35.7561 56.2156 35.655 58.2158C35.4526 62.2163 34.2812 65.9234 32.5938 68.8792C31.7938 70.3878 30.7316 71.7121 29.7305 72.9497C29.3994 73.2347 29.2166 73.4945 28.8856 73.7795C28.8247 73.8661 28.7637 73.9527 28.7028 74.0393C28.581 74.2125 28.3718 74.3243 28.2499 74.4975C27.9189 74.7825 27.7361 75.0423 27.4051 75.3273C26.9602 75.4027 26.6901 75.6011 26.42 75.7995C26.4361 75.034 26.3384 74.0591 26.1798 73.1707C26.0212 72.2824 25.7407 71.5673 25.5396 71.2963C25.4706 71.7656 25.4016 72.235 25.3326 72.7043C25.3775 73.3831 25.2476 73.9391 25.205 74.5564C25.12 75.7912 24.9475 76.9645 24.8096 77.9032C24.9578 77.878 26.1889 78.3556 27.751 78.5482C28.5188 78.5705 29.4614 78.7157 30.2901 78.6514C31.1189 78.587 31.9477 78.5227 32.6626 78.2489Z" fill="url(#paint1_linear_13516_5149)"/>
</g>
<defs>
<linearGradient id="paint0_linear_13516_5149" x1="19.3594" y1="52.6076" x2="19.1847" y2="52.4847" gradientUnits="userSpaceOnUse">
<stop stop-color="white"/>
<stop offset="1" stop-color="white" stop-opacity="0"/>
</linearGradient>
<linearGradient id="paint1_linear_13516_5149" x1="51.4876" y1="51.4874" x2="21.2619" y2="30.2255" gradientUnits="userSpaceOnUse">
<stop stop-color="white"/>
<stop offset="1" stop-color="white" stop-opacity="0"/>
</linearGradient>
<clipPath id="clip0_13516_5149">
<rect width="73.9097" height="36.9549" fill="white" transform="translate(72.7495 21.2617) rotate(125.124)"/>
</clipPath>
</defs>
</svg>
