<svg width="298" height="453" viewBox="0 0 298 453" fill="none" xmlns="http://www.w3.org/2000/svg">
<path d="M-281.699 448.101C-258.411 449.738 -73.1949 449.009 -44.587 446.771C-32.2077 383.971 -31.8368 370.263 -17.8845 299.458C-31.8496 301.543 -40.0342 301.811 -45.8402 293.883C-47.4388 291.709 -47.9759 288.96 -48.4491 286.313C-58.5265 231.006 -62.1328 174.524 -59.1787 118.386C-59.0508 115.944 -58.8718 113.374 -57.5673 111.302C-55.8281 108.553 -52.5159 107.299 -49.3827 106.417C-38.3078 103.284 -26.5807 102.479 -15.6081 107.018C-22.629 127.043 -26.683 148.105 -27.591 169.306C-27.8212 174.767 -27.5526 180.969 -23.4603 184.6C-21.12 186.672 -17.9484 187.49 -14.9048 188.181C11.2222 194.127 38.2189 196.211 64.9469 194.344C64.6783 187.938 66.3664 181.455 71.0726 176.966C77.275 175.38 83.5798 174.204 89.9485 173.45C91.79 173.232 93.7083 173.053 95.4476 173.705C97.4937 174.473 98.9644 176.276 100.32 177.989C104.041 182.695 107.84 187.554 109.566 193.296C106.881 193.922 104.284 191.838 102.839 189.498C101.394 187.158 100.589 184.408 98.7982 182.311C101.778 185.649 104.272 189.421 106.203 193.449C106.919 194.933 107.187 197.286 105.589 197.695C104.591 197.951 103.671 197.132 102.967 196.378C100.051 193.27 97.1484 190.15 94.2327 187.043C96.4579 189.703 98.6703 192.375 100.895 195.035C102.098 196.48 103.364 198.449 102.417 200.073C98.8237 196.928 95.2301 193.782 91.6493 190.623C93.6316 193.884 95.6138 197.145 97.6088 200.406C91.5598 199.843 85.7155 197.132 81.3802 192.874C77.5948 196.442 71.7632 197.644 68.1057 196.007C66.3408 189.639 66.4943 182.759 68.5277 176.467C43.6796 169.038 18.3199 163.335 -7.30835 159.396C-4.17516 159.818 -1.04197 160.227 2.09123 160.649C3.06316 160.777 4.13739 160.879 4.93028 160.304C5.69759 159.741 5.94058 158.731 6.11962 157.81C9.67483 140.394 13.2428 122.964 15.9156 106.251C15.6726 103.067 15.4169 99.8571 14.4066 96.8265C13.3963 93.7958 11.542 90.9442 8.76684 89.3585C6.78461 88.2332 4.46987 87.824 2.19351 87.7857C-4.92971 87.6834 -12.5005 92.0184 -14.0863 98.962C-13.2678 93.1053 -7.8327 89.09 -2.56382 86.379C7.02758 81.443 17.6421 78.4635 28.0647 78.5275C33.9219 85.3688 41.0195 91.1744 48.8845 95.5605C49.9331 96.136 51.0841 96.7242 52.2734 96.5452C53.1942 96.4045 53.9871 95.8291 54.7161 95.228C59.7292 91.0337 63.1437 84.9852 64.154 78.5275C53.5779 75.4713 48.7054 74.0774 41.5183 65.7399C48.0532 74.8702 53.629 76.3536 64.7423 77.9265C65.8421 78.0799 66.9931 78.1822 68.0162 77.7602C69.0776 77.3255 69.8449 76.3792 70.5227 75.4585C78.8608 64.2566 83.7972 48.9499 82.6974 35.3183C78.8992 29.0908 73.5152 23.8479 67.1721 20.229C65.4329 24.7686 62.4531 28.8222 58.6421 31.8401C55.7647 34.1291 52.4141 35.8426 49.8692 38.5024C47.0685 41.4308 45.4571 45.2798 43.9225 49.0266C44.6003 46.9038 45.2909 44.7172 45.163 42.4921C45.0351 40.2671 43.9225 37.9526 41.8892 37.0318C39.3187 35.881 36.1599 37.4027 34.6253 39.7556C33.0906 42.1213 32.8349 45.0752 32.8221 47.8885C32.8221 50.0112 32.9627 52.2363 34.0753 54.0393C35.1879 55.8423 37.5666 57.0316 38.5641 58.093C39.2803 64.3461 37.1318 70.8677 32.8477 75.4713C28.5635 80.0748 22.2204 82.6962 15.9412 82.4533C22.8598 78.9878 28.052 72.2616 29.6505 64.7041C31.0828 67.8243 29.7272 71.6606 27.323 74.103C24.906 76.5454 21.6321 77.9137 18.4606 79.2052L-4.04727 88.4123C5.7999 74.1286 10.5189 57.0444 17.5014 41.1622C24.484 25.2801 34.8938 9.50023 51.033 3.11923C53.9615 1.95557 57.0691 1.12437 60.2279 1.11159C65.484 1.07322 70.4843 3.23432 75.2928 5.35706C79.577 7.24962 83.9762 9.2189 87.2885 12.5309C90.6135 15.8556 92.5829 20.3185 93.8234 24.8581C95.7928 32.0831 96.0231 39.7812 94.4884 47.1084C93.005 54.2311 89.9229 60.9318 88.4011 68.0417C87.1862 73.7066 86.9688 79.6272 84.9865 85.0747C83.8484 88.1949 81.4185 91.5196 78.1063 91.2383C73.6303 90.8675 72.441 84.7422 69.1671 82.6834C67.8499 81.7116 66.5327 80.7525 65.2027 79.7807C67.5046 80.6246 68.9369 83.0287 69.2822 85.4583C69.6275 87.8752 69.0648 90.3304 68.4126 92.6961C67.0698 97.4914 65.3178 102.172 63.1565 106.66C60.4837 104.128 57.6063 101.814 54.5626 99.742C53.3349 98.8981 51.8003 98.0669 50.4191 98.6423C49.5623 99.0004 49.0124 99.806 48.4753 100.56C46.0454 103.936 42.9506 106.839 39.4338 109.051C34.8043 106.021 31.134 101.558 29.0494 96.4429C27.5148 92.6705 26.4662 88.1437 22.2076 85.8548L30.3411 81.1617C37.541 86.1744 45.9687 91.0593 54.5498 89.333C59.5118 88.3355 63.975 85.1642 69.0392 84.9852C74.3465 84.7934 79.3212 88.0159 82.5695 92.223C85.8178 96.4301 87.6466 101.532 89.3986 106.545C92.7108 116.033 101.663 152.248 101.42 162.043C97.0973 163.028 92.7875 164.012 88.465 164.997C96.3555 161.774 105.41 161.532 113.454 164.332C115.436 150.509 117.789 136.749 121.204 123.258C152.497 122.862 183.778 122.478 217.041 122.517C211.12 148.795 205.186 175.086 199.175 202.823C155.081 203.59 110.947 202.912 66.6222 201.352C61.6347 201.339 56.6471 201.326 51.6724 201.314C70.4332 202.234 89.2068 202.784 107.98 202.963C108.645 192.247 110.001 181.582 111.305 172.26C110.423 176.825 109.528 181.403 108.645 185.969C100.077 177.414 86.6746 174.051 75.0754 177.554C74.8196 171.723 78.9759 166.723 80.8942 161.212C86.649 144.575 71.3795 126.967 74.372 109.627L73.285 110.292C73.285 110.292 72.9525 110.624 72.1341 110.01C72.684 107.785 74.3976 105.893 76.5461 105.126C76.0601 121.072 75.5869 137.082 77.4924 152.913C77.8633 156.02 78.3365 159.191 77.7226 162.273C76.4694 168.577 70.203 173.475 62.1974 175.969C64.6783 183.079 60.5093 191.8 53.4116 194.319C49.2809 195.789 44.7282 195.303 40.3801 194.728C22.2843 192.35 4.34199 188.82 -13.3062 184.153C-11.503 197.375 -21.6443 208.897 -26.261 221.416C-33.0389 239.791 -26.6319 262.208 -9.508 272.042C-18.4216 273.985 -27.6038 274.689 -36.7092 274.113C22.9621 277.054 83.324 265.124 136.128 241.121C144.325 254.318 159.876 263.154 163.534 278.244C165.004 284.305 164.301 290.648 161.986 302.284C157.306 340.238 152.625 378.178 147.945 416.132C147.753 417.705 147.522 419.354 146.499 420.569C143.993 423.561 139.261 421.733 135.412 421.093C128.647 419.968 121.383 424.035 118.799 430.39C116.216 436.733 118.595 444.725 124.222 448.638C129.158 452.065 135.552 452.282 141.563 452.385C154.083 452.589 166.603 452.794 179.123 452.998C181.271 453.037 184.174 452.372 184.162 450.224C184.162 449.341 183.586 448.574 183.036 447.883C170.631 432.551 151.142 423.178 131.422 423.063C127.508 423.037 122.662 422.845 120.986 419.303C120.36 417.986 120.36 416.477 120.372 415.032C120.564 389.304 120.756 363.588 120.961 337.872C121.076 323.269 121.204 308.499 125.117 295.2C127.329 288.665 132.547 283.205 138.993 280.724C126.677 285.993 112.623 284.1 99.3736 282.105C78.7585 279.011 58.1306 275.916 37.5155 272.822C62.2741 275.507 87.0199 278.192 111.766 280.891C113.825 281.121 115.96 281.364 117.751 282.425C123.582 285.929 121.766 294.714 119.209 301.018C77.9528 301.619 36.6842 301.53 -6.17018 301.044C-8.48491 301.146 -10.7996 301.261 -13.1144 301.364C-10.9787 301.99 -8.56165 301.543 -6.78404 300.225C-17.6287 351.107 -26.2866 391.081 -36.9394 441.733C-37.7707 444.022 -38.6019 446.311 -39.4332 448.6C-40.7632 447.768 -42.3234 447.295 -43.8964 447.257C-33.7806 394.214 -25.8517 352.053 -15.5698 298.908C-21.2734 297.63 -27.4887 299.266 -32.911 297.067C-39.7017 294.305 -42.8605 286.556 -44.5614 279.433C-49.1013 260.328 -48.2061 240.392 -47.2726 220.776C-47.1575 218.398 -46.9912 215.866 -45.5717 213.948C-43.7301 211.454 -40.3667 210.764 -37.3614 209.996C-29.7139 208.027 -22.5267 204.306 -18.3449 201.365C2.8969 205.316 24.7141 206.198 46.1989 203.961C25.4431 210.073 4.6745 216.173 -16.0813 222.285C-14.0735 220.584 -11.3879 219.996 -8.8174 219.472C42.8227 208.935 95.4348 203.193 149.505 203.858C163.38 207.388 171.411 221.492 177.844 234.293C193.996 266.364 210.148 298.435 226.3 330.506C218.716 338.435 210.915 340.046 202.36 340.212C201.618 345.8 201.81 353.844 206.567 356.862C211.325 359.879 217.028 360.966 222.566 362.002C229.855 363.37 237.157 364.726 244.447 366.094C250.176 367.168 256.442 368.166 261.558 365.378C262.53 364.841 263.489 364.138 263.898 363.102C264.384 361.9 264.039 360.519 263.54 359.317C258.067 346.312 238.564 346.926 228.909 336.632C227.988 335.634 227.08 334.509 225.788 334.112C224.561 333.742 223.243 334.125 222.029 334.496C213.626 337.079 212.207 339.227 203.805 341.811C193.152 327.987 175.555 303.652 167.115 288.768C160.196 285.648 152.587 290.545 145.489 293.231C139.709 295.417 133.493 296.146 127.355 296.862C116.178 298.167 105.013 299.458 93.8362 300.763C98.2099 349.048 100.077 397.564 99.4376 446.042C102.136 445.876 104.834 445.71 106.868 443.242C106.075 398.485 104.425 353.754 101.906 309.062C103.44 351.887 105.41 394.7 107.827 437.474C108.07 441.809 108.479 446.541 111.83 449.942C171.271 454.303 404.252 452.679 485.575 452.679" stroke="white" stroke-width="0.5" stroke-miterlimit="10" stroke-linecap="round" stroke-linejoin="round"/>
</svg>
