<svg width="164" height="237" viewBox="0 0 164 237" fill="none" xmlns="http://www.w3.org/2000/svg">
<g clip-path="url(#clip0_13924_6664)">
<path d="M84.6188 237C83.1454 237 81.6476 236.965 80.1704 236.894C80.0719 236.889 79.9754 236.865 79.8863 236.823C79.7971 236.781 79.7171 236.722 79.6509 236.649C79.5847 236.576 79.5335 236.491 79.5002 236.399C79.467 236.306 79.4523 236.208 79.4571 236.11C79.4619 236.012 79.4861 235.915 79.5282 235.826C79.5703 235.738 79.6296 235.658 79.7026 235.592C79.7756 235.526 79.861 235.475 79.9538 235.442C80.0466 235.408 80.1451 235.394 80.2435 235.399C81.6963 235.468 83.1679 235.503 84.6188 235.503H84.8925C85.0914 235.503 85.2821 235.582 85.4227 235.722C85.5633 235.862 85.6423 236.053 85.6423 236.251C85.6423 236.449 85.5633 236.639 85.4227 236.779C85.2821 236.92 85.0914 236.998 84.8925 236.998H84.6188V237ZM89.5752 236.868C89.3763 236.873 89.1835 236.799 89.0392 236.662C88.8949 236.526 88.8109 236.338 88.8057 236.14C88.8005 235.941 88.8745 235.749 89.0114 235.605C89.1483 235.461 89.337 235.378 89.5358 235.372C91.0805 235.288 92.6383 235.163 94.1679 234.999C94.3668 234.978 94.5659 235.036 94.7215 235.162C94.8771 235.287 94.9763 235.469 94.9974 235.667C95.0186 235.865 94.9598 236.064 94.8342 236.219C94.7085 236.374 94.5262 236.473 94.3273 236.494C92.7733 236.66 91.1874 236.787 89.6165 236.868H89.5752ZM75.5346 236.55C75.5096 236.552 75.4845 236.552 75.4596 236.55C73.9018 236.397 72.3234 236.2 70.7731 235.967C70.6745 235.954 70.5796 235.921 70.4938 235.871C70.408 235.821 70.333 235.754 70.2733 235.675C70.2136 235.595 70.1703 235.505 70.146 235.409C70.1216 235.313 70.1167 235.213 70.1315 235.115C70.1463 235.017 70.1805 234.923 70.2322 234.838C70.2838 234.753 70.3519 234.679 70.4323 234.621C70.5128 234.563 70.6041 234.521 70.7009 234.498C70.7977 234.476 70.8981 234.472 70.9962 234.489C72.5221 234.717 74.0743 234.911 75.6077 235.062C75.8065 235.072 75.9934 235.16 76.1272 235.307C76.2609 235.454 76.3307 235.648 76.321 235.846C76.3113 236.044 76.223 236.231 76.0755 236.364C75.928 236.497 75.7334 236.567 75.5346 236.557V236.55ZM98.89 235.871C98.6912 235.887 98.4942 235.823 98.3425 235.694C98.1908 235.565 98.0968 235.381 98.0812 235.183C98.0655 234.985 98.1295 234.788 98.259 234.637C98.3886 234.486 98.5731 234.392 98.7719 234.376C99.4018 234.276 100.043 234.165 100.677 234.049C100.872 234.014 101.074 234.057 101.238 234.17C101.401 234.282 101.513 234.455 101.549 234.65C101.585 234.845 101.542 235.046 101.429 235.21C101.315 235.373 101.142 235.484 100.946 235.52C100.303 235.638 99.6511 235.75 99.01 235.853C98.9705 235.862 98.9304 235.868 98.89 235.871ZM66.2722 235.156C66.2218 235.156 66.1716 235.151 66.1223 235.141C64.5851 234.829 63.0348 234.474 61.5183 234.085C61.3256 234.035 61.1606 233.912 61.0596 233.741C60.9585 233.57 60.9296 233.366 60.9793 233.174C61.0291 232.982 61.1533 232.817 61.3247 232.717C61.496 232.616 61.7006 232.587 61.8932 232.637C63.3929 233.02 64.9094 233.369 66.4222 233.676C66.6043 233.712 66.7661 233.815 66.8764 233.964C66.9867 234.114 67.0376 234.298 67.0191 234.482C67.0007 234.667 66.9143 234.838 66.7766 234.962C66.639 235.086 66.4599 235.155 66.2741 235.156H66.2722ZM57.1992 232.829C57.1229 232.829 57.0469 232.817 56.9743 232.794C55.4746 232.326 53.975 231.814 52.5034 231.271C52.317 231.201 52.1657 231.061 52.0829 230.881C52.0001 230.701 51.9926 230.495 52.0619 230.309C52.1313 230.123 52.2719 229.972 52.4527 229.89C52.6336 229.807 52.84 229.8 53.0264 229.869C54.468 230.403 55.947 230.908 57.4223 231.364C57.5937 231.417 57.7403 231.53 57.8355 231.681C57.9307 231.833 57.9682 232.013 57.9412 232.19C57.9142 232.367 57.8245 232.528 57.6884 232.645C57.5522 232.762 57.3787 232.826 57.1992 232.825V232.829ZM48.4168 229.576C48.3143 229.575 48.213 229.554 48.1188 229.514C46.6753 228.89 45.2338 228.221 43.8353 227.525C43.7472 227.482 43.6686 227.421 43.604 227.347C43.5394 227.273 43.49 227.187 43.4588 227.094C43.4275 227.001 43.415 226.902 43.4219 226.804C43.4287 226.706 43.4549 226.611 43.4988 226.523C43.5428 226.435 43.6036 226.357 43.678 226.292C43.7523 226.228 43.8386 226.179 43.932 226.147C44.0254 226.116 44.124 226.104 44.2223 226.111C44.3205 226.118 44.4164 226.144 44.5046 226.187C45.8786 226.871 47.2958 227.529 48.7149 228.142C48.8731 228.211 49.0028 228.331 49.0822 228.484C49.1616 228.636 49.1859 228.811 49.1509 228.98C49.1159 229.148 49.0238 229.299 48.8901 229.408C48.7564 229.516 48.5892 229.575 48.4168 229.576ZM40.0355 225.404C39.9042 225.405 39.7749 225.372 39.6606 225.307C38.2922 224.53 36.9312 223.706 35.619 222.859C35.5333 222.807 35.4589 222.739 35.4003 222.657C35.3416 222.576 35.2999 222.484 35.2776 222.387C35.2552 222.289 35.2527 222.188 35.2702 222.09C35.2877 221.992 35.3248 221.898 35.3794 221.814C35.4339 221.73 35.5048 221.658 35.5878 221.602C35.6709 221.546 35.7643 221.507 35.8627 221.487C35.9611 221.468 36.0624 221.468 36.1606 221.488C36.2588 221.509 36.3519 221.548 36.4345 221.605C37.7223 222.435 39.0589 223.244 40.403 224.008C40.5465 224.09 40.6587 224.217 40.7223 224.37C40.7858 224.522 40.7971 224.691 40.7543 224.85C40.7115 225.009 40.6171 225.15 40.4857 225.25C40.3544 225.351 40.1935 225.405 40.028 225.404H40.0355ZM32.1698 220.331C32.0107 220.331 31.8558 220.28 31.7274 220.187C30.4545 219.252 29.1986 218.284 27.9932 217.292C27.8398 217.166 27.7431 216.984 27.7243 216.786C27.7055 216.589 27.7661 216.392 27.8929 216.239C28.0197 216.086 28.2022 215.99 28.4003 215.971C28.5984 215.952 28.7959 216.013 28.9492 216.139C30.1321 217.113 31.3637 218.069 32.6122 218.979C32.7399 219.072 32.8349 219.203 32.8835 219.353C32.9321 219.504 32.9318 219.665 32.8827 219.815C32.8336 219.965 32.7382 220.096 32.6102 220.188C32.4821 220.281 32.328 220.331 32.1698 220.331ZM24.9507 214.38C24.7607 214.38 24.5777 214.308 24.439 214.179C23.3873 213.199 22.3507 212.179 21.3609 211.149L21.0816 210.856C20.9449 210.712 20.8711 210.52 20.8766 210.321C20.882 210.123 20.9662 209.935 21.1107 209.799C21.2551 209.663 21.4479 209.589 21.6467 209.595C21.8455 209.6 22.034 209.684 22.1707 209.828L22.4444 210.116C23.4136 211.125 24.4296 212.125 25.4625 213.085C25.5729 213.188 25.6499 213.321 25.6833 213.467C25.7166 213.614 25.705 213.767 25.6497 213.907C25.5944 214.047 25.4982 214.167 25.3735 214.251C25.2488 214.336 25.1015 214.381 24.9507 214.38ZM18.5172 207.595C18.407 207.595 18.2982 207.571 18.1984 207.524C18.0986 207.478 18.0103 207.41 17.9398 207.326C16.9388 206.126 15.9602 204.872 15.0323 203.603C14.9742 203.524 14.9324 203.434 14.9091 203.339C14.8859 203.243 14.8817 203.144 14.8968 203.047C14.912 202.95 14.9461 202.857 14.9974 202.773C15.0486 202.689 15.1159 202.616 15.1954 202.558C15.2749 202.5 15.3651 202.459 15.4608 202.436C15.5565 202.412 15.6558 202.408 15.7531 202.423C15.8504 202.438 15.9438 202.473 16.0279 202.524C16.112 202.575 16.1852 202.642 16.2433 202.721C17.1543 203.967 18.1179 205.193 19.0927 206.371C19.1833 206.48 19.2409 206.612 19.2588 206.753C19.2767 206.894 19.2542 207.036 19.1939 207.165C19.1336 207.293 19.038 207.401 18.9182 207.478C18.7983 207.554 18.6593 207.594 18.5172 207.595ZM12.9965 200.052C12.8702 200.053 12.746 200.021 12.6352 199.961C12.5244 199.9 12.4308 199.813 12.3629 199.707C11.5212 198.398 10.7058 197.029 9.94094 195.655C9.89306 195.569 9.86262 195.475 9.85136 195.377C9.84009 195.279 9.84823 195.181 9.87529 195.086C9.92996 194.895 10.0584 194.734 10.2324 194.638C10.4064 194.541 10.6117 194.518 10.8032 194.572C10.9946 194.627 11.1565 194.755 11.2532 194.928C12.003 196.276 12.8034 197.612 13.6301 198.901C13.7028 199.014 13.7437 199.145 13.7484 199.279C13.7531 199.413 13.7215 199.546 13.6568 199.664C13.5922 199.781 13.497 199.88 13.3811 199.948C13.2652 200.016 13.133 200.052 12.9984 200.052H12.9965ZM8.44502 191.889C8.30357 191.89 8.16497 191.85 8.04522 191.775C7.92548 191.7 7.82947 191.592 7.7683 191.465C7.0897 190.054 6.44484 188.604 5.8506 187.154C5.80923 187.062 5.78685 186.963 5.78479 186.863C5.78273 186.762 5.80104 186.662 5.83861 186.569C5.87619 186.476 5.93226 186.391 6.00348 186.32C6.07469 186.248 6.15959 186.192 6.25308 186.155C6.34657 186.117 6.44673 186.098 6.54758 186.1C6.64842 186.102 6.74788 186.124 6.83999 186.165C6.9321 186.206 7.01497 186.265 7.08364 186.338C7.15232 186.412 7.20538 186.499 7.23966 186.593C7.82266 188.015 8.4544 189.439 9.11425 190.822C9.16903 190.936 9.19399 191.062 9.1868 191.188C9.1796 191.314 9.14048 191.436 9.0731 191.543C9.00571 191.65 8.91225 191.738 8.80143 191.8C8.69062 191.861 8.56607 191.893 8.4394 191.893L8.44502 191.889ZM4.90206 183.244C4.74573 183.244 4.59338 183.195 4.46633 183.104C4.33928 183.014 4.24388 182.886 4.19346 182.738C3.68545 181.254 3.21868 179.739 2.80065 178.23C2.77248 178.135 2.76362 178.035 2.77457 177.937C2.78553 177.838 2.81607 177.743 2.86444 177.656C2.9128 177.569 2.978 177.493 3.05625 177.432C3.1345 177.37 3.22422 177.325 3.32018 177.299C3.41615 177.272 3.51643 177.265 3.61518 177.278C3.71393 177.29 3.80917 177.322 3.89534 177.372C3.98152 177.422 4.0569 177.488 4.1171 177.567C4.17729 177.646 4.2211 177.736 4.24595 177.832C4.65648 179.313 5.11576 180.8 5.61252 182.256C5.67626 182.443 5.66271 182.649 5.57484 182.826C5.48697 183.004 5.33197 183.14 5.14388 183.203C5.06622 183.231 4.98443 183.245 4.90206 183.244ZM2.41073 174.242C2.24059 174.24 2.07628 174.18 1.94478 174.073C1.81329 173.965 1.72243 173.816 1.68714 173.65C1.35159 172.116 1.06665 170.553 0.834205 169.01C0.807985 168.815 0.859518 168.618 0.977683 168.462C1.09585 168.305 1.27117 168.2 1.4658 168.171C1.66044 168.142 1.85879 168.19 2.01804 168.305C2.17729 168.421 2.28467 168.594 2.317 168.787C2.5457 170.301 2.82501 171.834 3.14557 173.338C3.16909 173.447 3.16778 173.56 3.14175 173.669C3.11572 173.777 3.06563 173.879 2.99515 173.965C2.92467 174.052 2.83559 174.122 2.73446 174.17C2.63333 174.218 2.52271 174.243 2.41073 174.242ZM1.01791 165.014C0.829908 165.015 0.648491 164.945 0.509613 164.819C0.370734 164.693 0.284529 164.519 0.26808 164.332C0.13311 162.761 0.0412551 161.176 1.41718e-05 159.617C-0.00257066 159.519 0.0142649 159.421 0.0495595 159.33C0.0848541 159.238 0.137917 159.154 0.205717 159.083C0.273518 159.012 0.35473 158.955 0.444714 158.915C0.534699 158.875 0.631696 158.853 0.730165 158.85C0.828635 158.848 0.926649 158.864 1.01861 158.9C1.11058 158.935 1.19469 158.988 1.26614 159.055C1.3376 159.123 1.395 159.204 1.43507 159.294C1.47514 159.383 1.4971 159.48 1.49968 159.578C1.53905 161.107 1.62903 162.66 1.76587 164.194C1.77594 164.293 1.76626 164.392 1.7374 164.487C1.70855 164.582 1.66108 164.67 1.59777 164.746C1.53445 164.822 1.45655 164.885 1.3686 164.932C1.28064 164.978 1.18437 165.006 1.0854 165.014H1.01791ZM0.776093 155.67H0.749848C0.651357 155.667 0.554546 155.644 0.464952 155.603C0.375359 155.562 0.294742 155.504 0.227711 155.432C0.16068 155.36 0.108551 155.275 0.074306 155.183C0.0400605 155.091 0.0243704 154.993 0.028133 154.895C0.0881197 153.323 0.19872 151.739 0.35806 150.187C0.378444 149.989 0.476993 149.807 0.632028 149.681C0.787063 149.555 0.985884 149.496 1.18475 149.517C1.38362 149.537 1.56625 149.635 1.69245 149.79C1.81866 149.944 1.87811 150.142 1.85773 150.341C1.70026 151.86 1.59154 153.411 1.53343 154.951C1.52611 155.146 1.44286 155.33 1.30141 155.464C1.15996 155.599 0.971477 155.673 0.776093 155.67ZM1.73963 146.383C1.69698 146.382 1.65439 146.379 1.61216 146.373C1.51502 146.357 1.42209 146.321 1.3387 146.269C1.25531 146.217 1.18308 146.148 1.12615 146.068C1.06922 145.988 1.0287 145.897 1.00691 145.802C0.985124 145.706 0.982492 145.607 0.999168 145.51C1.26536 143.957 1.58779 142.402 1.95708 140.885C1.98034 140.789 2.02224 140.699 2.08038 140.62C2.13852 140.541 2.21176 140.473 2.29593 140.422C2.38009 140.371 2.47353 140.337 2.5709 140.322C2.66828 140.307 2.76768 140.311 2.86344 140.334C2.95921 140.357 3.04945 140.399 3.12902 140.457C3.20859 140.515 3.27593 140.588 3.32719 140.672C3.37845 140.756 3.41264 140.849 3.42779 140.946C3.44295 141.043 3.43877 141.142 3.41551 141.238C3.05371 142.722 2.73878 144.243 2.47822 145.762C2.44897 145.936 2.35874 146.095 2.22353 146.209C2.08832 146.323 1.91688 146.386 1.73963 146.386V146.383ZM3.95164 137.311C3.87463 137.312 3.79809 137.3 3.72482 137.276C3.53633 137.216 3.37933 137.084 3.28803 136.909C3.19673 136.734 3.17854 136.53 3.23742 136.342C3.71732 134.847 4.2572 133.351 4.84019 131.896C4.87712 131.805 4.9317 131.722 5.00081 131.651C5.06992 131.581 5.15222 131.525 5.243 131.487C5.33378 131.448 5.43126 131.428 5.52988 131.427C5.62851 131.426 5.72634 131.445 5.81779 131.482C5.90924 131.519 5.99253 131.573 6.06289 131.642C6.13325 131.711 6.18931 131.793 6.22787 131.883C6.26642 131.974 6.28672 132.071 6.28761 132.169C6.28849 132.268 6.26994 132.365 6.23301 132.456C5.67064 133.873 5.13638 135.334 4.66586 136.801C4.61642 136.951 4.52071 137.081 4.39242 137.174C4.26414 137.266 4.10985 137.316 3.95164 137.315V137.311ZM85.5392 136.142C84.8288 136.142 84.0958 136.112 83.3666 136.052C83.2681 136.044 83.1722 136.017 83.0843 135.972C82.9964 135.927 82.9182 135.865 82.8542 135.79C82.7902 135.715 82.7417 135.628 82.7114 135.534C82.6811 135.441 82.6697 135.342 82.6777 135.244C82.6857 135.145 82.713 135.05 82.7581 134.962C82.8031 134.875 82.8651 134.797 82.9404 134.733C83.0924 134.604 83.2896 134.541 83.4884 134.557C84.9981 134.685 86.5166 134.668 88.0231 134.506C88.2219 134.484 88.4214 134.542 88.5777 134.667C88.734 134.791 88.8342 134.972 88.8563 135.171C88.8784 135.369 88.8207 135.568 88.6957 135.724C88.5707 135.879 88.3888 135.979 88.1899 136.001C87.3097 136.098 86.4248 136.146 85.5392 136.145V136.142ZM78.8076 135.301C78.7477 135.3 78.6879 135.293 78.6295 135.28C77.0782 134.901 75.5545 134.418 74.0686 133.834C73.9769 133.798 73.8932 133.744 73.8223 133.676C73.7514 133.608 73.6947 133.526 73.6553 133.436C73.616 133.346 73.5948 133.249 73.593 133.151C73.5913 133.053 73.6089 132.955 73.645 132.864C73.681 132.772 73.7348 132.689 73.8032 132.618C73.8716 132.547 73.9534 132.491 74.0437 132.452C74.134 132.412 74.2312 132.391 74.3298 132.39C74.4283 132.388 74.5262 132.405 74.6179 132.441C76.04 133.001 77.4987 133.464 78.9838 133.826C79.1625 133.869 79.3193 133.975 79.4244 134.126C79.5294 134.276 79.5755 134.46 79.5537 134.642C79.532 134.823 79.444 134.991 79.3064 135.113C79.1689 135.234 78.9914 135.301 78.8076 135.301ZM92.6608 134.951C92.4849 134.951 92.3147 134.889 92.1799 134.777C92.045 134.664 91.9541 134.508 91.9231 134.336C91.892 134.163 91.9228 133.985 92.01 133.833C92.0972 133.681 92.2354 133.564 92.4002 133.503C93.8053 132.991 95.1307 132.284 96.3368 131.402C96.4973 131.292 96.6945 131.248 96.8868 131.28C97.079 131.312 97.2512 131.418 97.3667 131.574C97.4823 131.731 97.5321 131.926 97.5058 132.119C97.4794 132.311 97.3788 132.486 97.2254 132.606C95.9081 133.571 94.4602 134.345 92.9251 134.904C92.8406 134.936 92.7511 134.953 92.6608 134.953V134.951ZM70.1095 131.899C69.9829 131.899 69.8585 131.867 69.7477 131.806C69.4515 131.643 69.1535 131.473 68.8629 131.303C67.7944 130.675 66.7353 129.995 65.7155 129.274C65.5621 129.156 65.4602 128.984 65.4312 128.793C65.4023 128.602 65.4484 128.408 65.5601 128.25C65.6717 128.092 65.8401 127.984 66.0302 127.947C66.2202 127.911 66.4171 127.949 66.5797 128.053C67.5676 128.749 68.5911 129.408 69.624 130.014C69.9033 130.178 70.1864 130.341 70.4732 130.498C70.6187 130.578 70.7333 130.704 70.799 130.857C70.8647 131.009 70.8778 131.179 70.8361 131.339C70.7945 131.5 70.7005 131.642 70.569 131.743C70.4374 131.845 70.2758 131.9 70.1095 131.899ZM100.086 129.47C99.9475 129.47 99.8119 129.431 99.6941 129.358C99.5763 129.286 99.481 129.182 99.4187 129.059C99.3564 128.936 99.3295 128.798 99.3411 128.66C99.3527 128.522 99.4022 128.391 99.4843 128.28C100.366 127.077 101.073 125.755 101.584 124.355C101.618 124.263 101.67 124.178 101.736 124.106C101.803 124.034 101.884 123.976 101.973 123.934C102.062 123.893 102.159 123.87 102.257 123.866C102.356 123.862 102.454 123.877 102.546 123.911C102.639 123.945 102.724 123.997 102.796 124.063C102.868 124.13 102.927 124.21 102.968 124.299C103.01 124.388 103.033 124.485 103.037 124.583C103.041 124.681 103.026 124.779 102.992 124.871C102.431 126.404 101.657 127.851 100.692 129.169C100.621 129.264 100.528 129.34 100.422 129.392C100.316 129.444 100.199 129.47 100.08 129.468L100.086 129.47ZM7.44212 128.653C7.31475 128.653 7.18954 128.621 7.0783 128.559C6.96705 128.497 6.87344 128.408 6.80629 128.3C6.73914 128.192 6.70066 128.069 6.69449 127.942C6.68832 127.815 6.71466 127.689 6.77102 127.575C7.46274 126.173 8.22007 124.772 9.02052 123.417C9.06752 123.327 9.13244 123.247 9.2113 123.183C9.29017 123.119 9.38133 123.071 9.47923 123.043C9.57713 123.015 9.67972 123.008 9.78073 123.021C9.88175 123.033 9.97908 123.067 10.0668 123.118C10.1545 123.17 10.2307 123.239 10.2909 123.321C10.351 123.403 10.3938 123.496 10.4165 123.595C10.4393 123.694 10.4416 123.796 10.4234 123.896C10.4051 123.996 10.3666 124.091 10.3102 124.176C9.52478 125.503 8.78432 126.867 8.10947 128.235C8.0482 128.359 7.95331 128.465 7.83544 128.539C7.71757 128.612 7.58138 128.652 7.44212 128.653ZM62.4593 126.529C62.2784 126.527 62.1039 126.461 61.9682 126.342C60.7835 125.314 59.6287 124.207 58.5358 123.056C58.3994 122.912 58.3259 122.72 58.3317 122.522C58.3375 122.323 58.4221 122.136 58.5668 122C58.7114 121.863 58.9044 121.79 59.1032 121.796C59.302 121.802 59.4904 121.886 59.6268 122.03C60.686 123.152 61.8032 124.217 62.9523 125.207C63.0664 125.308 63.1472 125.44 63.1839 125.587C63.2207 125.734 63.2118 125.889 63.1583 126.031C63.1048 126.173 63.0093 126.295 62.8845 126.382C62.7597 126.468 62.6114 126.515 62.4593 126.515V126.529ZM103.337 120.821C103.309 120.823 103.282 120.823 103.254 120.821C103.056 120.8 102.876 120.701 102.751 120.546C102.627 120.392 102.569 120.194 102.59 119.997C102.671 119.257 102.711 118.512 102.71 117.768C102.71 117.008 102.67 116.249 102.59 115.493C102.58 115.395 102.589 115.296 102.617 115.201C102.646 115.107 102.692 115.018 102.754 114.942C102.817 114.865 102.894 114.801 102.981 114.754C103.068 114.707 103.163 114.678 103.262 114.667C103.36 114.657 103.46 114.666 103.555 114.694C103.649 114.722 103.738 114.769 103.815 114.831C103.97 114.956 104.069 115.138 104.09 115.336C104.176 116.143 104.219 116.954 104.219 117.766C104.22 118.565 104.177 119.363 104.09 120.158C104.069 120.342 103.981 120.512 103.841 120.634C103.702 120.757 103.522 120.823 103.337 120.821ZM12.1942 120.61C12.0574 120.61 11.9233 120.572 11.8063 120.502C11.6894 120.431 11.5941 120.329 11.5308 120.209C11.4675 120.088 11.4385 119.952 11.4471 119.816C11.4556 119.68 11.5014 119.549 11.5793 119.436C12.4716 118.153 13.4258 116.88 14.4156 115.652C14.5436 115.51 14.7215 115.422 14.9127 115.406C15.1039 115.39 15.2938 115.448 15.4435 115.568C15.5931 115.688 15.691 115.86 15.717 116.049C15.7431 116.239 15.6953 116.431 15.5834 116.587C14.6218 117.788 13.6845 119.042 12.8109 120.289C12.7418 120.388 12.6496 120.469 12.5422 120.525C12.4348 120.581 12.3154 120.61 12.1942 120.61ZM56.0276 119.752C55.9137 119.752 55.8014 119.726 55.6991 119.676C55.5967 119.626 55.5072 119.554 55.4371 119.465C54.4698 118.231 53.5438 116.932 52.6834 115.602C52.5757 115.435 52.539 115.232 52.5811 115.039C52.6233 114.845 52.741 114.676 52.9083 114.568C53.0756 114.461 53.2788 114.424 53.4732 114.466C53.6676 114.508 53.8373 114.626 53.945 114.793C54.7792 116.084 55.679 117.347 56.6181 118.545C56.7045 118.655 56.758 118.788 56.7726 118.927C56.7872 119.066 56.7624 119.207 56.7008 119.332C56.6393 119.458 56.5436 119.564 56.4246 119.638C56.3055 119.713 56.168 119.752 56.0276 119.752ZM18.0616 113.331C17.916 113.331 17.7735 113.289 17.6516 113.209C17.5297 113.13 17.4337 113.017 17.3752 112.884C17.3168 112.751 17.2985 112.604 17.3225 112.46C17.3465 112.317 17.4118 112.184 17.5105 112.077C18.5772 110.93 19.6982 109.801 20.8473 108.713C20.9935 108.586 21.1832 108.521 21.3768 108.531C21.5704 108.54 21.7527 108.624 21.8856 108.765C22.0184 108.905 22.0915 109.092 22.0894 109.285C22.0874 109.478 22.0104 109.663 21.8746 109.801C20.7498 110.857 19.655 111.959 18.6109 113.083C18.5416 113.16 18.457 113.222 18.3624 113.264C18.2679 113.307 18.1655 113.33 18.0616 113.331ZM50.9531 111.911C50.8161 111.911 50.6817 111.874 50.5644 111.804C50.447 111.733 50.3513 111.632 50.2876 111.511C49.5547 110.124 48.8723 108.683 48.2593 107.23C48.2172 107.138 48.1939 107.04 48.1908 106.94C48.1877 106.839 48.2049 106.74 48.2413 106.646C48.2777 106.553 48.3326 106.467 48.4028 106.395C48.4729 106.324 48.5568 106.266 48.6496 106.228C48.7423 106.189 48.8419 106.169 48.9426 106.169C49.0432 106.169 49.1427 106.19 49.2352 106.229C49.3277 106.269 49.4113 106.326 49.481 106.399C49.5507 106.471 49.6051 106.556 49.6409 106.65C50.2389 108.063 50.9025 109.465 51.6149 110.816C51.6748 110.93 51.7043 111.057 51.7005 111.185C51.6968 111.314 51.6598 111.439 51.5933 111.549C51.5268 111.659 51.4329 111.75 51.3208 111.814C51.2087 111.877 51.082 111.91 50.9531 111.911ZM102.369 111.595C102.21 111.595 102.056 111.545 101.927 111.451C101.799 111.358 101.704 111.226 101.655 111.076C101.196 109.641 100.587 108.258 99.8367 106.951C99.7373 106.779 99.7104 106.575 99.7621 106.383C99.8138 106.191 99.9397 106.028 100.112 105.929C100.285 105.83 100.49 105.803 100.682 105.854C100.874 105.906 101.038 106.032 101.138 106.204C101.941 107.602 102.593 109.082 103.083 110.618C103.142 110.806 103.125 111.009 103.034 111.184C102.943 111.359 102.786 111.492 102.598 111.552C102.524 111.578 102.447 111.593 102.369 111.595ZM24.8776 106.923C24.7231 106.923 24.5724 106.875 24.446 106.787C24.3196 106.698 24.2239 106.573 24.1717 106.428C24.1196 106.283 24.1137 106.125 24.1549 105.977C24.196 105.828 24.2821 105.696 24.4015 105.598C25.6162 104.604 26.8797 103.636 28.16 102.724C28.2402 102.667 28.3308 102.626 28.4267 102.604C28.5227 102.582 28.622 102.579 28.7192 102.595C28.8163 102.611 28.9093 102.646 28.9928 102.698C29.0764 102.75 29.1488 102.818 29.2061 102.898C29.2633 102.978 29.3042 103.068 29.3264 103.164C29.3486 103.259 29.3517 103.358 29.3355 103.455C29.3193 103.552 29.2842 103.645 29.232 103.728C29.1799 103.811 29.1118 103.883 29.0317 103.94C27.7795 104.834 26.5423 105.779 25.3538 106.744C25.2217 106.859 25.0532 106.924 24.8776 106.929V106.923ZM97.7409 103.548C97.6346 103.548 97.5295 103.526 97.4325 103.482C97.3355 103.439 97.249 103.375 97.1785 103.296C96.1723 102.158 95.0718 101.107 93.8886 100.154C93.7523 100.025 93.6697 99.8493 93.6573 99.6622C93.6448 99.475 93.7034 99.29 93.8214 99.1439C93.9394 98.9978 94.1082 98.9013 94.2943 98.8735C94.4804 98.8456 94.6701 98.8886 94.8259 98.9938C96.0737 99.9999 97.235 101.108 98.2977 102.307C98.3928 102.415 98.4547 102.548 98.4759 102.69C98.4972 102.832 98.477 102.977 98.4177 103.108C98.3583 103.239 98.2624 103.35 98.1414 103.428C98.0204 103.506 97.8794 103.548 97.7353 103.548H97.7409ZM47.3146 103.309C47.1559 103.309 47.0012 103.259 46.8729 103.166C46.7446 103.073 46.6491 102.942 46.6003 102.791C46.1148 101.296 45.6893 99.7581 45.3331 98.2276C45.2884 98.0343 45.3225 97.8312 45.428 97.6629C45.5334 97.4947 45.7016 97.3752 45.8955 97.3306C46.0894 97.2859 46.2931 97.3199 46.4619 97.4251C46.6306 97.5302 46.7505 97.6979 46.7953 97.8912C47.1402 99.3862 47.5545 100.881 48.0269 102.331C48.086 102.519 48.0686 102.722 47.9784 102.897C47.8883 103.072 47.7326 103.205 47.5451 103.266C47.473 103.292 47.397 103.307 47.3202 103.309H47.3146ZM32.4922 101.496C32.3291 101.496 32.1704 101.443 32.0402 101.345C31.91 101.247 31.8153 101.11 31.7706 100.954C31.7258 100.797 31.7335 100.631 31.7923 100.479C31.8512 100.327 31.958 100.199 32.0967 100.113C33.437 99.2872 34.8186 98.4985 36.2076 97.7678C36.3829 97.68 36.5857 97.6641 36.7726 97.7236C36.9595 97.7831 37.1155 97.9133 37.2073 98.0862C37.299 98.259 37.3191 98.4609 37.2633 98.6484C37.2075 98.8358 37.0802 98.9941 36.9087 99.0891C35.5497 99.8048 34.1962 100.584 32.8859 101.386C32.7689 101.457 32.6348 101.495 32.4978 101.496H32.4922ZM90.5144 97.6632C90.3823 97.6618 90.253 97.6257 90.1395 97.5585C88.8192 96.7819 87.4512 96.0891 86.0435 95.4842C85.9518 95.4461 85.8686 95.3902 85.7988 95.3197C85.729 95.2493 85.6739 95.1657 85.6367 95.0739C85.5996 94.9821 85.5811 94.8838 85.5824 94.7848C85.5836 94.6857 85.6046 94.588 85.6441 94.4971C85.6836 94.4062 85.7408 94.3241 85.8124 94.2555C85.884 94.1868 85.9686 94.133 86.0612 94.0973C86.1538 94.0615 86.2526 94.0444 86.3519 94.047C86.4512 94.0496 86.549 94.0719 86.6396 94.1125C88.1021 94.7435 89.5239 95.4644 90.8968 96.2709C91.0385 96.3538 91.1489 96.4807 91.2112 96.6322C91.2735 96.7837 91.2841 96.9514 91.2415 97.1095C91.199 97.2676 91.1055 97.4074 90.9755 97.5075C90.8455 97.6075 90.6861 97.6622 90.5219 97.6632H90.5144ZM40.7797 97.1381C40.6075 97.1388 40.4402 97.0803 40.3061 96.9725C40.1719 96.8647 40.0791 96.7141 40.0433 96.5461C40.0074 96.3781 40.0307 96.203 40.1092 96.0501C40.1876 95.8972 40.3165 95.7759 40.4742 95.7066C41.8595 95.0936 43.2861 94.5236 44.6939 94.0078C44.5719 93.8923 44.4932 93.7386 44.4708 93.5724C44.2477 92.0082 44.0959 90.4235 44.0115 88.8593C44.0064 88.7612 44.0206 88.6629 44.0535 88.5703C44.0865 88.4776 44.1373 88.3923 44.2033 88.3193C44.2693 88.2462 44.3491 88.1868 44.438 88.1445C44.527 88.1022 44.6235 88.0777 44.722 88.0726C44.8205 88.0674 44.919 88.0816 45.0119 88.1144C45.1049 88.1472 45.1905 88.198 45.2637 88.2637C45.337 88.3295 45.3966 88.409 45.4391 88.4978C45.4815 88.5865 45.506 88.6827 45.5112 88.7808C45.5899 90.3002 45.7399 91.8419 45.9574 93.3631C45.977 93.5028 45.9567 93.6452 45.8986 93.7738C45.8406 93.9025 45.7472 94.0121 45.6293 94.0901C45.7258 94.1765 45.7982 94.2864 45.8393 94.4091C45.8805 94.5317 45.889 94.6629 45.8641 94.7898C45.8391 94.9168 45.7816 95.0351 45.6971 95.1332C45.6126 95.2313 45.5039 95.3059 45.3819 95.3496C43.9422 95.8692 42.495 96.4485 41.0853 97.0727C40.9894 97.1161 40.8851 97.1384 40.7797 97.1381ZM49.5903 93.9611C49.4093 93.9609 49.2345 93.8954 49.0981 93.7767C48.9618 93.6581 48.8731 93.4942 48.8484 93.3155C48.8237 93.1367 48.8648 92.9551 48.9639 92.8041C49.0631 92.6532 49.2136 92.5431 49.3878 92.4941C50.91 92.0643 52.4584 91.6887 53.9937 91.3728C54.1886 91.3332 54.3913 91.3723 54.5572 91.4817C54.7232 91.591 54.8387 91.7616 54.8785 91.9559C54.9183 92.1502 54.879 92.3523 54.7693 92.5177C54.6596 92.6831 54.4885 92.7983 54.2936 92.838C52.794 93.1426 51.2812 93.5107 49.7946 93.9293C49.7268 93.9511 49.656 93.9625 49.5847 93.963L49.5903 93.9611ZM81.9531 93.9256C81.8775 93.9254 81.8024 93.9141 81.7301 93.892C80.2923 93.4472 78.7888 93.0622 77.2611 92.7445C77.0703 92.7003 76.9044 92.5835 76.799 92.4189C76.6935 92.2544 76.6568 92.0552 76.6967 91.8641C76.7366 91.6729 76.85 91.5049 77.0126 91.396C77.1751 91.2871 77.374 91.2459 77.5666 91.2813C79.1413 91.6064 80.6916 92.0045 82.1743 92.4642C82.3456 92.5172 82.492 92.6296 82.5873 92.7811C82.6825 92.9325 82.7201 93.1129 82.6934 93.2896C82.6666 93.4664 82.5773 93.6277 82.4415 93.7443C82.3057 93.861 82.1324 93.9253 81.9531 93.9256ZM58.7645 92.0942C58.5657 92.1066 58.37 92.0397 58.2206 91.9083C58.0712 91.7769 57.9803 91.5917 57.9678 91.3934C57.9554 91.1951 58.0225 91.0001 58.1543 90.8511C58.2861 90.7022 58.4719 90.6116 58.6708 90.5992C60.2417 90.4011 61.8313 90.2646 63.3966 90.1899C63.5955 90.1805 63.79 90.2502 63.9373 90.3837C64.0846 90.5173 64.1726 90.7037 64.1821 90.9019C64.1915 91.1002 64.1216 91.294 63.9876 91.4409C63.8537 91.5877 63.6667 91.6755 63.4679 91.6849C61.9419 91.7559 60.3917 91.8886 58.8601 92.0811C58.8269 92.0892 58.793 92.0942 58.7589 92.0961L58.7645 92.0942ZM72.7902 92.0138C72.7608 92.0157 72.7314 92.0157 72.7021 92.0138C71.1836 91.827 69.6334 91.7186 68.0925 91.6662C67.8936 91.6596 67.7055 91.5744 67.5697 91.4295C67.4338 91.2845 67.3612 91.0918 67.3679 90.8935C67.3746 90.6952 67.4601 90.5078 67.6054 90.3723C67.7508 90.2369 67.9442 90.1645 68.1431 90.1712C69.7252 90.2254 71.3186 90.3469 72.8783 90.53C73.0771 90.5417 73.2632 90.6316 73.3956 90.78C73.5279 90.9284 73.5957 91.1232 73.5841 91.3215C73.5724 91.5197 73.4822 91.7052 73.3333 91.8372C73.1844 91.9691 72.989 92.0367 72.7902 92.0251V92.0138ZM44.7295 84.8975H44.6995C44.601 84.8936 44.5042 84.8705 44.4147 84.8293C44.3252 84.7881 44.2448 84.7298 44.1779 84.6576C44.111 84.5854 44.0591 84.5007 44.0251 84.4085C43.9911 84.3163 43.9756 84.2183 43.9797 84.1201C44.0415 82.5372 44.1784 80.9431 44.3865 79.3976C44.4128 79.2011 44.5164 79.0231 44.6744 78.9027C44.8324 78.7823 45.0319 78.7294 45.2291 78.7557C45.4262 78.782 45.6048 78.8852 45.7256 79.0428C45.8463 79.2003 45.8993 79.3992 45.873 79.5957C45.6705 81.1001 45.5374 82.6419 45.4775 84.178C45.4702 84.371 45.3883 84.5538 45.2488 84.6879C45.1094 84.822 44.9233 84.8971 44.7295 84.8975ZM45.9798 75.6526C45.9218 75.6521 45.8639 75.6452 45.8074 75.632C45.7112 75.61 45.6202 75.5693 45.5398 75.5121C45.4594 75.455 45.3911 75.3826 45.3389 75.299C45.2866 75.2155 45.2514 75.1225 45.2353 75.0254C45.2192 74.9283 45.2225 74.829 45.245 74.7331C45.6088 73.1923 46.0512 71.671 46.5703 70.1752C46.6026 70.0824 46.6529 69.9969 46.7183 69.9235C46.7837 69.8501 46.8629 69.7902 46.9515 69.7474C47.0401 69.7045 47.1363 69.6794 47.2346 69.6736C47.333 69.6679 47.4315 69.6814 47.5245 69.7136C47.6176 69.7457 47.7034 69.7958 47.777 69.861C47.8506 69.9262 47.9106 70.0052 47.9536 70.0936C47.9966 70.1819 48.0218 70.2778 48.0276 70.3758C48.0334 70.4738 48.0198 70.572 47.9875 70.6648C47.4852 72.1124 47.0566 73.5844 46.7034 75.0751C46.6652 75.2383 46.5731 75.3839 46.4419 75.4887C46.3106 75.5934 46.1479 75.6511 45.9798 75.6526ZM49.0485 66.8412C48.9226 66.8417 48.7985 66.8105 48.6878 66.7506C48.5771 66.6907 48.4834 66.6039 48.4152 66.4983C48.347 66.3927 48.3066 66.2717 48.2977 66.1465C48.2888 66.0212 48.3117 65.8957 48.3643 65.7816C49.042 64.3489 49.7929 62.9517 50.6138 61.5955C50.6645 61.5114 50.7314 61.438 50.8105 61.3795C50.8897 61.3211 50.9796 61.2788 51.0752 61.255C51.1708 61.2313 51.2701 61.2265 51.3675 61.241C51.4649 61.2555 51.5585 61.289 51.643 61.3395C51.7274 61.3901 51.801 61.4567 51.8596 61.5356C51.9182 61.6145 51.9607 61.7042 51.9845 61.7995C52.0084 61.8947 52.0132 61.9938 51.9986 62.0909C51.9841 62.188 51.9505 62.2813 51.8998 62.3655C51.1083 63.6784 50.3844 65.0307 49.7309 66.417C49.6693 66.545 49.5724 66.6529 49.4516 66.728C49.3308 66.8032 49.1909 66.8424 49.0485 66.8412ZM53.8625 58.8465C53.7234 58.8466 53.587 58.8081 53.4686 58.7354C53.3502 58.6626 53.2544 58.5585 53.192 58.4346C53.1295 58.3107 53.1029 58.1719 53.115 58.0338C53.1272 57.8956 53.1776 57.7636 53.2607 57.6524C54.198 56.3966 55.2159 55.165 56.2826 53.9896C56.4161 53.8426 56.6026 53.7545 56.8013 53.7447C56.9999 53.7349 57.1943 53.8042 57.3417 53.9372C57.4891 54.0703 57.5775 54.2563 57.5873 54.4543C57.5972 54.6523 57.5277 54.8461 57.3942 54.9931C56.3594 56.1331 55.3734 57.3291 54.4642 58.5438C54.3946 58.6376 54.3039 58.7138 54.1994 58.7664C54.0949 58.8189 53.9795 58.8464 53.8625 58.8465ZM60.1386 51.932C59.9878 51.9319 59.8404 51.8865 59.7159 51.8016C59.5914 51.7168 59.4954 51.5965 59.4405 51.4564C59.3857 51.3163 59.3745 51.163 59.4084 51.0165C59.4423 50.87 59.5197 50.737 59.6306 50.6351C60.7872 49.5736 62.0113 48.5495 63.2692 47.5871C63.427 47.4664 63.6265 47.4132 63.8237 47.4391C64.0209 47.465 64.1997 47.568 64.3208 47.7254C64.4419 47.8827 64.4953 48.0816 64.4692 48.2782C64.4432 48.4748 64.3399 48.6531 64.1821 48.7738C62.9598 49.7082 61.7695 50.7042 60.6466 51.7358C60.5068 51.8597 60.3256 51.927 60.1386 51.9245V51.932ZM67.5657 46.249C67.4029 46.2499 67.2443 46.1979 67.1137 46.1009C66.9832 46.0039 66.8878 45.8673 66.8421 45.7115C66.7964 45.5557 66.8027 45.3894 66.8602 45.2375C66.9177 45.0857 67.0232 44.9566 67.1608 44.8699C68.4899 44.027 69.8733 43.2291 71.2736 42.4984C71.4492 42.4126 71.6515 42.3987 71.8373 42.4595C72.0231 42.5203 72.1777 42.651 72.2682 42.8239C72.3587 42.9967 72.3778 43.1979 72.3216 43.3846C72.2654 43.5713 72.1382 43.7288 71.9672 43.8233C70.6063 44.5335 69.2603 45.3184 67.9669 46.1313C67.8466 46.2058 67.7073 46.2441 67.5657 46.2416V46.249ZM75.8607 41.9228C75.6876 41.9226 75.5198 41.8627 75.3859 41.7532C75.252 41.6437 75.1603 41.4913 75.1263 41.322C75.0922 41.1528 75.1181 40.977 75.1993 40.8245C75.2806 40.672 75.4123 40.5523 75.5721 40.4857C77.0305 39.8783 78.5302 39.327 80.0279 38.8467C80.1217 38.8168 80.2205 38.8056 80.3187 38.8137C80.4168 38.8218 80.5124 38.8491 80.6 38.8941C80.6875 38.939 80.7653 39.0007 80.829 39.0756C80.8926 39.1506 80.9408 39.2373 80.9709 39.3308C81.0009 39.4243 81.0122 39.5228 81.004 39.6206C80.9959 39.7184 80.9685 39.8137 80.9234 39.901C80.8783 39.9883 80.8164 40.0659 80.7413 40.1293C80.6661 40.1928 80.5791 40.2408 80.4853 40.2708C79.0288 40.738 77.5704 41.2743 76.1513 41.8648C76.0588 41.9007 75.96 41.9178 75.8607 41.9153V41.9228ZM107.976 39.3495C107.913 39.3493 107.85 39.3411 107.789 39.3252C106.307 38.9292 104.805 38.6105 103.29 38.3702C103.192 38.3553 103.098 38.3212 103.014 38.27C102.929 38.2188 102.856 38.1515 102.797 38.0719C102.739 37.9923 102.697 37.902 102.674 37.8061C102.651 37.7103 102.647 37.6109 102.663 37.5136C102.678 37.4163 102.713 37.323 102.765 37.2391C102.817 37.1552 102.885 37.0823 102.965 37.0247C103.045 36.9671 103.136 36.9259 103.232 36.9035C103.329 36.881 103.428 36.8777 103.526 36.8939C105.088 37.1434 106.636 37.4727 108.164 37.8806C108.338 37.9278 108.49 38.0364 108.59 38.1864C108.691 38.3363 108.734 38.5174 108.711 38.6963C108.688 38.8753 108.601 39.0399 108.466 39.16C108.331 39.28 108.157 39.3473 107.976 39.3495ZM84.7744 39.0691C84.5902 39.0687 84.4126 39.0007 84.2754 38.8781C84.1383 38.7555 84.0512 38.5869 84.0308 38.4044C84.0104 38.2219 84.0581 38.0383 84.1649 37.8886C84.2716 37.7389 84.4298 37.6336 84.6094 37.5928C86.156 37.2433 87.7306 36.9611 89.2865 36.7537C89.3841 36.7407 89.4834 36.747 89.5785 36.7722C89.6737 36.7974 89.763 36.8411 89.8412 36.9007C89.9194 36.9603 89.9851 37.0347 90.0346 37.1196C90.084 37.2045 90.1161 37.2983 90.1292 37.3956C90.1422 37.4929 90.1359 37.5919 90.1106 37.6867C90.0853 37.7816 90.0415 37.8706 89.9817 37.9486C89.9219 38.0266 89.8473 38.0921 89.7621 38.1413C89.6769 38.1906 89.5828 38.2226 89.4852 38.2357C87.9724 38.4375 86.4447 38.7103 84.9412 39.0504C84.8865 39.0631 84.8306 39.0694 84.7744 39.0691ZM98.7382 37.8787H98.6932C97.8028 37.8264 96.8936 37.8021 95.9938 37.8021C95.3583 37.7927 94.7191 37.8133 94.0817 37.8395C93.9832 37.8433 93.885 37.8277 93.7926 37.7937C93.7001 37.7596 93.6153 37.7077 93.543 37.641C93.4707 37.5743 93.4122 37.494 93.371 37.4048C93.3298 37.3155 93.3066 37.2191 93.3028 37.1209C93.299 37.0228 93.3146 36.9248 93.3488 36.8327C93.3829 36.7405 93.435 36.656 93.5019 36.5839C93.5688 36.5118 93.6494 36.4535 93.7389 36.4124C93.8284 36.3713 93.9251 36.3482 94.0236 36.3444C94.6797 36.3183 95.3489 36.3052 95.9957 36.3071C96.9236 36.3071 97.859 36.3332 98.7794 36.3855C98.9783 36.391 99.1669 36.475 99.3036 36.619C99.4404 36.7631 99.5141 36.9554 99.5087 37.1536C99.5032 37.3519 99.4189 37.5398 99.2744 37.6762C99.13 37.8125 98.9371 37.886 98.7382 37.8806V37.8787Z" fill="url(#paint0_linear_13924_6664)"/>
<path d="M65.6331 21.6463L163.813 0.187012L122.83 60.8685L96.0763 42.7468L162.843 0.814925L87.2002 35.6342L65.6331 21.6463Z" fill="#9794D0"/>
<path d="M87.2001 35.6342L93.5212 62.244L96.0762 42.7469L162.843 0.814941L87.2001 35.6342Z" fill="#6E6AAB"/>
<path d="M105.329 49.342L93.5212 62.2442L96.0763 42.7471L105.329 49.342Z" fill="#837FC2"/>
</g>
<defs>
<linearGradient id="paint0_linear_13924_6664" x1="54.3584" y1="36.3069" x2="54.3584" y2="237" gradientUnits="userSpaceOnUse">
<stop stop-color="#645FBE"/>
<stop offset="1" stop-color="#645FBE" stop-opacity="0"/>
</linearGradient>
<clipPath id="clip0_13924_6664">
<rect width="164" height="237" fill="white" transform="translate(0 0.000244141)"/>
</clipPath>
</defs>
</svg>
