<svg width="24" height="17" viewBox="0 0 24 17" fill="none" xmlns="http://www.w3.org/2000/svg">
<path d="M3.6001 1.21429C3.6001 0.892237 3.72653 0.583379 3.95157 0.355656C4.17661 0.127934 4.48184 0 4.8001 0H22.8001C23.1184 0 23.4236 0.127934 23.6486 0.355656C23.8737 0.583379 24.0001 0.892237 24.0001 1.21429C24.0001 1.53633 23.8737 1.84519 23.6486 2.07292C23.4236 2.30064 23.1184 2.42857 22.8001 2.42857H4.8001C4.48184 2.42857 4.17661 2.30064 3.95157 2.07292C3.72653 1.84519 3.6001 1.53633 3.6001 1.21429Z" fill="white"/>
<path d="M8.3999 15.7856C8.3999 15.4635 8.52633 15.1547 8.75137 14.9269C8.97642 14.6992 9.28164 14.5713 9.5999 14.5713H22.7999C23.1182 14.5713 23.4234 14.6992 23.6484 14.9269C23.8735 15.1547 23.9999 15.4635 23.9999 15.7856C23.9999 16.1076 23.8735 16.4165 23.6484 16.6442C23.4234 16.8719 23.1182 16.9999 22.7999 16.9999H9.5999C9.28164 16.9999 8.97642 16.8719 8.75137 16.6442C8.52633 16.4165 8.3999 16.1076 8.3999 15.7856Z" fill="white"/>
<path d="M1.2 7.28613C0.88174 7.28613 0.576515 7.41407 0.351472 7.64179C0.126428 7.86951 0 8.17837 0 8.50042C0 8.82247 0.126428 9.13133 0.351472 9.35905C0.576515 9.58677 0.88174 9.7147 1.2 9.7147H22.8C23.1183 9.7147 23.4235 9.58677 23.6485 9.35905C23.8736 9.13133 24 8.82247 24 8.50042C24 8.17837 23.8736 7.86951 23.6485 7.64179C23.4235 7.41407 23.1183 7.28613 22.8 7.28613H1.2Z" fill="white"/>
</svg>
