<svg width="16" height="16" viewBox="0 0 16 16" fill="none" xmlns="http://www.w3.org/2000/svg">
<path d="M8.35337 13.6134H4.14004C2.03337 13.6134 1.33337 12.2134 1.33337 10.8067V5.19339C1.33337 3.08672 2.03337 2.38672 4.14004 2.38672H8.35337C10.46 2.38672 11.16 3.08672 11.16 5.19339V10.8067C11.16 12.9134 10.4534 13.6134 8.35337 13.6134Z" stroke="#C45312" stroke-width="1.5" stroke-linecap="round" stroke-linejoin="round"/>
<path d="M13.0134 11.4001L11.16 10.1001V5.89342L13.0134 4.59342C13.92 3.96009 14.6667 4.34675 14.6667 5.46009V10.5401C14.6667 11.6534 13.92 12.0401 13.0134 11.4001Z" stroke="#C45312" stroke-width="1.5" stroke-linecap="round" stroke-linejoin="round"/>
<path d="M7.66663 7.3335C8.21891 7.3335 8.66663 6.88578 8.66663 6.3335C8.66663 5.78121 8.21891 5.3335 7.66663 5.3335C7.11434 5.3335 6.66663 5.78121 6.66663 6.3335C6.66663 6.88578 7.11434 7.3335 7.66663 7.3335Z" stroke="#C45312" stroke-width="1.5" stroke-linecap="round" stroke-linejoin="round"/>
</svg>
